<?xml version="1.0" encoding="UTF-8"?>
<!DOCTYPE svg PUBLIC "-//W3C//DTD SVG 1.1//EN" "http://www.w3.org/Graphics/SVG/1.1/DTD/svg11.dtd">
<svg height="500pt" version="1.1" xmlns="http://www.w3.org/2000/svg" width="667pt" viewBox="0 0 667 500">
<g id="#ffffffff">
<path fill="#ffffff" opacity="1.00" d=" M 0.00 0.00 L 667.00 0.00 L 667.00 500.00 L 0.00 500.00 L 0.00 0.00 M 153.19 76.48 C 150.97 77.35 149.67 79.53 147.99 81.11 C 145.73 78.46 142.81 75.84 139.01 76.70 C 134.78 77.07 133.35 81.45 131.62 84.61 C 128.91 86.28 124.86 88.01 125.34 91.87 C 126.86 94.70 128.26 97.66 127.78 100.98 C 125.88 101.09 124.35 99.69 122.64 99.10 C 119.38 97.77 115.44 99.81 112.90 101.88 C 110.13 105.79 108.18 110.34 107.29 115.04 C 105.85 120.62 107.97 126.93 112.37 130.61 C 114.84 132.83 116.31 136.00 119.09 137.91 C 122.24 140.32 126.28 140.84 129.99 141.91 C 127.40 144.46 122.17 145.50 121.63 149.81 C 123.70 156.28 127.40 164.09 134.94 165.14 C 138.85 165.89 143.11 167.89 146.97 165.93 C 152.05 163.12 155.49 158.16 158.14 153.13 C 158.66 151.73 160.38 151.81 161.57 151.41 C 162.08 152.91 162.58 154.43 163.00 155.97 C 161.42 158.68 159.39 161.23 158.57 164.30 C 158.07 167.12 160.58 169.13 161.99 171.25 C 160.89 173.40 159.10 175.41 159.31 177.99 C 158.76 182.35 161.83 186.55 165.76 188.13 C 169.81 189.64 173.92 187.34 178.04 187.55 C 180.70 188.32 183.15 189.90 186.03 189.71 C 188.47 193.70 191.27 197.49 193.33 201.71 C 176.71 194.33 158.10 196.86 140.75 199.65 C 126.50 201.89 113.90 209.30 100.78 214.83 C 100.63 215.35 100.33 216.40 100.17 216.92 C 103.53 216.47 106.52 214.74 109.79 213.97 C 115.45 212.53 121.29 211.98 127.06 211.16 C 145.20 208.35 164.41 207.52 181.83 214.23 C 188.85 216.22 195.61 219.23 201.49 223.58 C 202.55 224.40 203.71 225.10 205.03 225.41 C 205.24 225.92 205.67 226.92 205.89 227.43 C 202.01 226.54 198.16 225.45 194.23 224.81 C 185.30 223.44 176.18 225.38 167.29 223.69 C 162.97 222.99 159.52 220.11 155.53 218.55 C 152.46 217.61 149.24 217.20 146.04 217.15 C 146.14 217.52 146.34 218.26 146.45 218.62 C 149.45 219.68 152.47 220.92 154.52 223.49 C 159.33 228.84 166.23 233.04 173.61 232.22 C 185.31 235.22 197.38 231.90 209.22 231.75 C 209.28 234.98 208.69 238.20 209.15 241.44 C 208.05 246.16 206.79 250.88 205.74 255.63 C 198.03 272.32 187.84 287.74 178.81 303.73 C 177.69 306.35 176.52 309.21 173.78 310.52 C 173.37 310.43 172.56 310.26 172.15 310.17 C 172.14 311.88 172.15 313.60 172.17 315.32 C 167.73 313.70 162.89 311.91 158.17 312.44 C 151.92 308.77 143.98 310.63 138.01 313.99 C 131.69 317.98 124.63 321.57 116.96 321.42 C 117.15 321.85 117.53 322.71 117.72 323.13 C 120.60 323.43 123.63 325.22 126.41 323.67 L 125.85 324.65 C 132.88 325.54 139.99 324.68 147.04 325.13 C 155.14 325.69 163.47 325.92 171.14 328.87 C 175.97 330.63 179.23 334.79 182.94 338.12 C 187.79 342.39 191.13 347.99 195.01 353.08 C 196.02 353.80 195.96 355.40 194.41 355.03 C 188.19 351.20 183.14 345.53 176.34 342.64 C 171.90 340.39 166.95 339.35 162.00 339.27 C 158.03 338.38 154.10 336.76 149.95 337.14 C 152.51 339.23 155.88 339.98 158.46 342.09 C 148.39 362.18 133.65 379.48 123.47 399.51 C 119.90 405.81 115.89 411.87 112.75 418.40 C 112.47 420.26 112.44 422.16 112.18 424.03 C 114.66 421.79 116.67 419.15 118.29 416.24 C 120.57 413.76 122.25 410.88 123.56 407.79 C 124.09 407.93 125.16 408.22 125.69 408.36 C 128.92 403.91 131.42 398.98 134.49 394.42 C 137.05 389.97 140.36 385.87 141.98 380.93 C 146.84 373.26 151.32 365.31 156.17 357.60 C 158.89 358.02 161.49 358.95 164.19 359.49 C 173.42 360.85 182.78 359.68 192.04 360.53 C 194.25 360.60 196.58 360.96 198.70 360.13 C 204.57 357.79 211.24 357.45 217.37 358.91 C 217.60 362.36 216.78 366.16 218.74 369.25 C 220.75 373.21 225.05 376.56 229.71 375.45 C 233.97 374.15 237.73 378.03 242.03 376.88 C 246.05 376.11 250.90 374.91 252.54 370.65 C 255.46 364.90 251.49 358.64 246.97 355.09 C 242.13 351.99 236.14 351.01 230.49 351.83 C 226.57 352.61 223.39 355.22 219.78 356.77 C 215.67 356.44 211.54 356.33 207.42 356.29 L 207.64 355.16 C 213.33 351.49 220.12 350.32 226.49 348.34 C 236.54 345.19 247.18 344.55 257.62 345.53 C 261.88 345.95 265.44 348.45 269.30 350.04 C 272.96 353.35 271.48 359.00 274.01 363.01 C 278.27 370.08 283.49 377.11 290.95 381.03 C 294.93 383.30 299.61 382.74 303.99 382.63 C 305.15 383.89 306.05 385.63 307.79 386.17 C 310.87 387.17 315.55 387.62 316.63 383.69 C 322.38 383.88 325.85 378.92 328.45 374.51 C 329.98 371.80 328.50 368.84 327.30 366.34 C 330.07 365.83 332.21 363.18 331.63 360.34 C 330.21 357.05 326.50 355.10 323.01 355.09 C 318.73 355.51 315.76 352.00 312.40 350.00 C 320.48 346.02 325.51 337.72 327.04 329.05 C 327.00 325.51 323.63 323.63 320.83 322.31 C 320.46 320.98 320.06 319.65 319.67 318.34 C 316.65 317.39 313.33 317.40 310.30 318.31 C 306.17 319.76 303.25 323.19 299.97 325.91 C 301.03 323.06 303.02 320.30 302.50 317.11 C 302.14 314.11 302.19 311.09 302.65 308.10 C 301.32 308.13 299.90 308.01 298.69 308.71 C 293.65 311.38 289.02 314.94 285.35 319.32 C 282.39 323.07 278.09 325.74 276.19 330.28 C 273.54 334.95 273.82 340.64 271.44 345.36 C 270.81 345.61 269.57 346.11 268.95 346.37 C 253.75 341.90 237.29 342.01 222.03 346.20 C 219.24 347.00 216.50 348.05 213.61 348.43 C 216.64 345.21 220.35 342.53 222.45 338.53 C 228.60 327.04 229.62 312.27 223.18 300.69 C 219.99 295.87 214.98 292.77 210.08 289.93 C 207.96 288.81 206.68 286.74 205.14 284.99 C 205.52 287.47 206.27 289.98 205.72 292.49 C 205.28 296.42 202.61 299.52 201.14 303.07 C 199.93 305.71 200.35 308.70 200.26 311.52 L 199.26 311.82 C 194.16 308.98 188.40 311.79 183.24 312.97 C 182.56 312.16 181.88 311.37 181.20 310.58 C 185.06 308.47 186.48 303.93 188.08 300.12 C 197.64 288.49 201.75 273.74 207.83 260.23 C 208.88 256.96 209.76 253.58 211.61 250.65 C 212.83 248.38 214.46 246.17 214.66 243.52 L 215.36 243.98 C 215.44 243.12 215.60 241.39 215.68 240.53 C 220.11 241.66 224.28 243.57 228.45 245.41 C 233.32 247.74 237.55 251.18 242.41 253.54 C 250.81 257.54 259.04 262.08 268.01 264.74 C 276.31 267.01 283.74 271.70 292.03 274.01 C 297.75 274.77 303.77 274.66 308.90 277.70 C 304.21 271.63 299.22 265.76 293.14 261.04 C 293.38 257.93 296.60 256.41 297.53 253.58 C 298.04 252.72 298.20 250.49 299.73 251.31 C 304.77 252.87 311.40 256.79 315.94 252.22 C 313.35 252.52 310.75 253.79 308.16 252.90 C 303.73 251.64 299.29 250.11 295.30 247.79 C 290.36 244.12 287.69 238.20 285.82 232.51 C 290.95 231.92 295.95 235.34 300.95 233.73 C 298.16 233.48 295.55 232.50 292.95 231.55 C 290.50 231.27 288.01 231.25 285.58 230.82 C 290.34 228.26 295.86 230.94 300.97 230.12 C 300.85 228.42 298.59 229.15 297.48 228.69 C 297.66 228.15 298.03 227.07 298.22 226.54 C 305.40 228.88 313.01 230.41 320.60 229.42 C 323.85 228.71 326.80 230.88 329.34 232.63 C 330.45 234.85 331.85 237.33 331.21 239.90 C 330.05 243.10 326.39 244.23 324.83 247.14 C 328.35 245.58 331.94 242.92 332.55 238.86 C 332.39 234.40 329.65 230.39 325.42 228.85 C 327.87 227.62 330.77 226.94 332.44 224.57 C 332.41 222.73 332.20 220.88 332.48 219.06 C 333.78 216.15 336.24 213.49 335.80 210.07 C 336.04 207.67 333.94 206.10 332.65 204.38 C 328.91 200.20 325.47 195.28 320.23 192.88 C 316.15 191.95 311.90 192.16 307.76 192.43 C 306.18 189.15 304.29 185.78 301.11 183.81 C 302.06 186.87 305.53 188.65 305.75 191.94 C 305.06 200.13 298.77 205.92 293.80 211.83 C 291.35 214.28 290.11 217.58 288.00 220.28 C 287.55 219.87 286.64 219.03 286.19 218.62 C 288.41 214.33 293.14 211.98 295.19 207.66 C 292.57 208.96 290.70 211.30 288.30 212.93 C 287.98 212.52 287.36 211.69 287.05 211.27 C 284.93 214.33 282.73 217.36 280.05 219.96 C 274.21 214.04 270.15 206.29 269.27 197.98 C 269.26 190.81 272.03 183.22 278.11 179.01 C 277.31 181.60 275.30 183.61 274.46 186.15 C 274.80 189.06 276.52 192.09 274.90 194.91 C 273.08 198.65 272.34 202.84 272.69 206.98 C 272.90 208.69 273.51 210.61 275.16 211.45 C 273.86 206.41 274.00 201.04 276.23 196.27 C 277.93 193.05 277.04 189.44 276.23 186.13 C 279.28 182.53 279.78 177.77 281.70 173.68 C 284.71 172.74 287.34 176.51 290.46 175.43 C 292.42 174.55 294.17 173.27 296.02 172.18 C 301.10 173.38 302.25 179.04 301.97 183.52 C 303.29 182.91 303.97 181.51 303.77 180.09 C 303.12 176.73 302.07 172.73 298.45 171.46 C 295.31 169.45 292.59 172.73 289.80 173.74 C 286.80 173.83 284.23 171.16 281.11 171.99 C 278.52 173.83 277.40 177.00 275.14 179.17 C 270.77 183.24 268.37 189.10 267.72 194.97 C 267.10 200.98 269.35 206.75 271.95 212.04 C 273.75 215.38 276.59 217.99 278.62 221.18 C 278.47 222.47 277.90 223.66 277.50 224.88 C 277.71 225.07 278.14 225.46 278.35 225.66 C 278.75 225.22 279.56 224.35 279.96 223.91 C 279.99 224.56 280.04 225.85 280.07 226.50 C 280.78 226.75 281.48 227.05 282.16 227.39 C 281.80 227.65 281.07 228.18 280.70 228.45 C 281.33 228.88 282.59 229.76 283.22 230.20 C 282.72 230.29 281.73 230.47 281.23 230.56 C 285.63 232.23 285.83 237.43 288.12 240.95 C 289.95 244.98 293.46 247.75 296.88 250.37 C 297.79 254.29 292.81 256.39 292.15 260.00 C 291.55 261.65 291.30 264.38 288.98 264.36 C 285.47 265.23 282.88 262.49 280.08 260.96 C 277.79 259.74 274.35 260.51 273.05 257.78 C 271.68 254.67 272.07 251.11 271.19 247.86 C 270.49 245.51 268.16 244.09 267.35 241.84 C 267.15 237.71 268.09 233.63 268.80 229.58 C 272.10 229.74 275.41 229.84 278.70 229.59 C 278.69 229.32 278.66 228.78 278.64 228.51 C 275.46 228.50 272.29 228.21 269.12 228.33 C 262.94 227.09 257.11 224.15 252.42 219.95 C 252.61 218.29 251.16 216.91 250.68 215.37 C 249.18 212.68 250.97 209.35 249.52 206.70 L 250.59 207.12 C 253.42 203.75 255.38 199.43 255.33 194.97 C 255.43 192.98 255.55 190.57 257.52 189.47 C 260.63 187.23 264.62 187.41 268.09 188.65 C 265.19 184.01 259.02 187.59 255.13 188.94 C 254.49 187.84 253.83 186.76 253.08 185.73 C 251.95 197.73 244.62 209.79 232.95 214.01 C 235.10 209.00 238.61 204.71 240.72 199.67 C 242.51 195.24 244.98 191.12 246.62 186.62 C 249.26 180.47 250.34 173.63 254.27 168.07 C 267.12 172.56 281.31 167.76 291.63 159.67 C 294.01 157.89 296.91 157.02 299.43 155.47 C 302.99 153.45 306.05 150.68 309.61 148.67 C 313.56 146.32 315.00 141.66 316.71 137.69 C 318.36 133.95 319.38 129.69 318.29 125.66 C 317.32 123.62 315.46 121.59 313.02 121.67 C 309.86 122.10 307.19 124.55 303.90 124.28 C 303.40 117.01 303.59 109.54 301.50 102.50 C 298.36 98.17 291.70 99.02 287.89 101.90 C 283.06 105.93 277.16 108.34 272.21 112.19 C 269.28 114.71 267.42 118.17 265.06 121.17 C 265.92 114.89 265.48 108.26 262.21 102.69 C 259.38 97.97 257.00 92.98 253.95 88.40 C 248.88 89.72 243.47 89.53 238.59 91.59 C 229.90 95.27 223.58 102.86 218.75 110.73 C 216.75 113.66 216.34 117.21 216.02 120.65 C 214.45 120.83 212.88 121.04 211.32 121.25 C 211.27 125.33 211.27 129.48 212.62 133.38 C 215.07 141.93 217.28 151.61 224.77 157.27 C 228.28 160.18 232.87 161.01 237.26 161.62 C 241.08 162.11 244.69 163.51 248.37 164.59 C 248.24 165.15 247.97 166.29 247.83 166.85 L 248.79 167.04 C 249.78 172.18 248.17 177.42 245.89 182.00 C 243.61 186.78 242.27 192.14 238.91 196.33 C 238.59 190.68 239.12 184.90 237.66 179.37 C 236.43 173.85 232.61 169.28 227.91 166.29 C 226.98 166.67 226.06 167.07 225.15 167.46 C 222.87 166.33 220.53 165.31 218.05 164.72 C 218.94 160.12 218.95 154.88 215.97 150.99 C 214.16 147.82 210.57 146.86 207.36 145.76 C 206.49 143.13 205.07 140.68 202.72 139.10 C 201.88 137.12 200.73 135.29 199.39 133.62 C 200.91 128.19 201.20 122.51 201.65 116.92 C 199.10 119.14 196.31 121.58 192.62 120.42 C 193.36 118.28 196.80 118.24 196.66 115.70 C 198.67 116.02 199.62 113.98 200.67 112.68 C 204.03 108.25 203.09 102.24 201.82 97.22 C 200.49 90.86 195.21 86.48 190.47 82.51 C 188.96 81.53 187.35 79.53 185.37 80.48 C 181.16 82.12 179.32 86.82 177.90 90.76 C 176.71 97.63 177.32 104.88 174.45 111.41 C 173.92 113.45 171.97 115.22 172.47 117.44 L 171.48 117.22 C 168.51 120.43 166.21 124.25 162.88 127.14 C 163.45 122.88 168.19 119.89 167.57 115.57 L 168.64 116.05 C 171.60 111.64 173.66 106.33 173.45 100.96 C 173.53 98.67 171.75 97.14 170.49 95.48 C 168.15 91.53 168.88 85.88 164.75 83.01 C 163.01 82.63 161.22 82.66 159.46 82.53 C 157.89 80.16 156.71 76.12 153.19 76.48 M 323.28 247.19 C 322.06 247.25 321.32 249.62 322.88 249.72 C 324.13 249.71 324.85 247.26 323.28 247.19 M 319.19 250.14 C 317.81 250.83 317.75 251.50 319.02 252.16 C 320.40 251.47 320.46 250.80 319.19 250.14 M 577.23 322.26 C 574.67 324.93 570.93 324.00 567.79 323.13 C 562.58 321.54 557.54 324.30 552.65 325.77 C 552.52 326.34 552.27 327.48 552.14 328.05 C 547.96 332.40 540.04 333.84 538.97 340.69 C 536.52 343.35 534.12 346.28 532.69 349.62 C 531.19 353.48 534.53 356.60 535.72 359.99 C 536.05 364.47 532.33 367.28 529.54 370.13 C 529.69 372.96 530.33 375.76 532.04 378.08 C 531.23 381.45 529.62 384.56 528.75 387.91 C 528.44 392.11 529.43 396.29 530.43 400.34 C 528.21 401.89 527.43 404.91 526.56 407.37 C 525.20 412.09 527.75 416.72 531.02 419.95 C 533.52 422.28 537.07 422.20 540.24 422.70 C 540.67 425.78 541.68 428.74 543.73 431.12 C 542.87 433.69 540.39 435.05 538.72 437.02 C 538.88 438.18 539.05 439.35 539.21 440.52 C 538.43 441.46 536.85 442.21 537.17 443.65 C 537.67 448.17 540.70 452.30 544.56 454.60 C 547.06 456.15 549.88 454.28 552.56 454.67 C 554.83 454.69 557.42 455.92 559.45 454.40 C 562.81 454.94 566.31 455.33 569.66 454.48 C 574.10 453.62 577.05 449.83 579.90 446.64 C 580.40 445.11 581.00 443.59 581.17 441.98 C 581.05 440.18 579.42 438.85 579.33 437.07 C 579.99 435.20 580.97 433.48 581.69 431.64 C 585.53 433.90 586.76 428.71 588.52 426.44 C 593.34 421.29 591.86 413.78 592.60 407.41 C 594.80 402.99 597.94 398.97 598.95 394.03 C 597.33 391.22 595.91 388.31 594.57 385.36 C 592.65 385.09 590.68 384.97 588.86 384.26 C 592.68 381.16 596.29 376.39 595.10 371.18 C 595.79 369.80 596.26 368.09 595.47 366.65 C 594.20 365.50 592.35 364.94 591.47 363.44 C 590.99 360.23 592.28 356.90 591.27 353.75 C 590.64 351.33 589.50 349.05 587.68 347.31 C 585.82 343.15 577.51 345.91 577.41 340.19 C 579.99 335.27 583.39 330.79 585.84 325.79 C 586.93 321.49 579.82 319.03 577.23 322.26 Z"/>
<path fill="#ffffff" opacity="1.00" d=" M 154.38 136.99 C 152.98 139.08 151.06 136.28 152.48 134.87 C 152.96 135.40 153.90 136.46 154.38 136.99 Z"/>
</g>
<g id="#5b5b5bff">
<path fill="#5b5b5b" opacity="1.00" d=" M 153.19 76.48 C 156.71 76.12 157.89 80.16 159.46 82.53 C 161.22 82.66 163.01 82.63 164.75 83.01 C 168.88 85.88 168.15 91.53 170.49 95.48 C 171.75 97.14 173.53 98.67 173.45 100.96 C 173.66 106.33 171.60 111.64 168.64 116.05 L 167.57 115.57 C 169.49 111.25 171.87 106.87 171.94 102.03 C 172.16 99.86 170.42 98.29 169.46 96.53 C 167.25 93.30 167.39 89.06 165.26 85.81 C 163.76 83.52 160.72 84.20 158.41 83.73 C 157.15 81.60 155.85 79.45 153.94 77.83 C 151.50 79.22 149.83 81.52 147.90 83.48 C 145.45 81.17 143.20 77.17 139.22 78.15 C 135.23 78.46 134.46 82.86 132.64 85.60 C 130.62 87.49 126.44 88.31 127.03 91.80 C 128.98 94.43 133.62 95.92 133.01 99.81 C 131.55 102.91 126.98 104.10 127.09 108.09 C 126.01 111.22 129.24 112.37 131.37 113.60 C 131.84 115.47 131.94 117.48 132.87 119.19 C 136.29 121.97 140.30 123.94 143.62 126.86 C 146.06 129.36 148.28 132.10 151.10 134.20 C 151.62 132.61 151.77 130.96 151.82 129.30 C 152.54 130.15 153.26 131.01 153.83 131.98 C 153.30 132.90 152.85 133.87 152.48 134.87 C 151.06 136.28 152.98 139.08 154.38 136.99 C 154.59 136.77 155.02 136.34 155.23 136.12 C 155.69 136.95 156.18 137.76 156.66 138.57 C 157.88 140.49 158.85 142.59 158.90 144.91 C 156.90 144.40 154.97 143.65 152.96 143.19 C 149.94 143.65 147.11 145.01 144.03 145.19 C 139.49 145.87 135.40 142.97 130.86 143.49 C 132.30 142.73 133.70 141.90 135.09 141.06 C 139.75 145.36 146.71 143.38 152.06 141.65 C 151.08 138.69 148.17 137.04 146.01 135.00 C 143.16 132.23 138.94 132.19 135.69 130.12 C 140.39 129.59 144.58 131.82 148.28 134.42 C 148.45 134.56 148.78 134.84 148.95 134.98 C 149.06 135.08 149.29 135.28 149.40 135.38 C 149.29 135.28 149.06 135.08 148.95 134.98 C 148.78 134.84 148.45 134.56 148.28 134.42 C 145.20 129.62 140.68 126.05 135.82 123.21 C 134.02 121.82 131.30 120.94 130.81 118.46 C 130.42 117.15 130.10 115.82 129.75 114.50 C 128.28 113.54 126.73 112.67 125.46 111.45 C 125.20 108.71 126.22 106.02 126.68 103.33 C 125.36 102.26 124.00 101.21 122.86 99.95 L 122.64 99.10 C 124.35 99.69 125.88 101.09 127.78 100.98 C 128.26 97.66 126.86 94.70 125.34 91.87 C 124.86 88.01 128.91 86.28 131.62 84.61 C 133.35 81.45 134.78 77.07 139.01 76.70 C 142.81 75.84 145.73 78.46 147.99 81.11 C 149.67 79.53 150.97 77.35 153.19 76.48 M 129.08 95.70 C 129.03 97.81 129.06 99.93 129.19 102.05 C 130.24 101.18 131.18 100.19 131.99 99.09 C 131.24 97.78 130.38 96.51 129.08 95.70 Z"/>
<path fill="#5b5b5b" opacity="1.00" d=" M 237.28 97.81 C 241.26 99.85 241.84 105.05 242.85 108.97 C 240.11 105.82 239.49 101.35 237.28 97.81 Z"/>
<path fill="#5b5b5b" opacity="1.00" d=" M 240.92 111.12 C 243.57 113.40 247.01 114.98 249.00 117.91 C 245.56 116.89 242.39 114.44 240.92 111.12 Z"/>
<path fill="#5b5b5b" opacity="1.00" d=" M 204.03 162.99 C 204.36 160.74 205.21 158.55 206.95 157.01 C 206.90 159.35 205.76 161.45 204.03 162.99 Z"/>
<path fill="#5b5b5b" opacity="1.00" d=" M 248.03 210.20 C 248.51 209.02 248.98 207.84 249.52 206.70 C 250.97 209.35 249.18 212.68 250.68 215.37 C 251.16 216.91 252.61 218.29 252.42 219.95 C 252.25 220.31 251.91 221.02 251.74 221.38 C 250.50 219.01 249.54 216.52 248.53 214.06 C 244.66 219.60 240.98 225.31 235.95 229.90 C 240.95 228.85 245.86 227.05 251.03 227.06 C 251.22 227.54 251.61 228.50 251.81 228.98 C 244.29 228.91 237.65 233.45 230.12 232.94 L 229.66 232.10 C 229.43 231.73 228.95 230.99 228.72 230.63 C 231.90 229.95 235.18 228.92 237.38 226.37 C 241.62 221.83 245.51 216.74 247.74 210.89 C 247.13 212.67 250.19 213.39 249.35 211.23 C 249.02 210.97 248.36 210.46 248.03 210.20 Z"/>
</g>
<g id="#fefefeff">
<path fill="#fefefe" opacity="1.00" d=" M 132.64 85.60 C 134.46 82.86 135.23 78.46 139.22 78.15 C 143.20 77.17 145.45 81.17 147.90 83.48 C 149.83 81.52 151.50 79.22 153.94 77.83 C 155.85 79.45 157.15 81.60 158.41 83.73 C 160.72 84.20 163.76 83.52 165.26 85.81 C 167.39 89.06 167.25 93.30 169.46 96.53 C 170.42 98.29 172.16 99.86 171.94 102.03 C 171.87 106.87 169.49 111.25 167.57 115.57 C 164.83 120.02 162.29 124.57 160.09 129.31 C 160.10 126.94 160.28 124.57 160.52 122.21 C 161.08 118.09 161.32 113.90 160.73 109.78 C 159.76 111.85 159.41 114.12 159.03 116.36 C 158.57 116.42 157.64 116.55 157.17 116.61 C 159.35 120.07 157.54 124.25 157.58 128.03 C 156.27 122.77 155.46 117.42 154.79 112.05 C 154.50 112.22 153.91 112.57 153.62 112.75 C 153.46 118.61 155.48 124.27 155.96 130.08 C 152.85 123.63 153.08 116.01 149.20 109.90 C 149.38 108.47 149.46 107.02 149.42 105.58 C 147.26 105.20 145.20 105.80 144.35 108.01 C 145.23 108.78 146.14 109.53 147.07 110.24 C 148.39 116.58 150.55 122.72 151.86 129.08 C 148.55 124.66 145.57 119.64 140.79 116.68 C 142.80 121.88 148.44 124.81 149.93 130.41 C 148.23 128.97 146.77 127.28 145.44 125.49 C 144.83 125.95 144.23 126.40 143.62 126.86 C 140.30 123.94 136.29 121.97 132.87 119.19 C 131.94 117.48 131.84 115.47 131.37 113.60 C 129.24 112.37 126.01 111.22 127.09 108.09 C 126.98 104.10 131.55 102.91 133.01 99.81 C 133.62 95.92 128.98 94.43 127.03 91.80 C 126.44 88.31 130.62 87.49 132.64 85.60 Z"/>
<path fill="#fefefe" opacity="1.00" d=" M 294.30 101.11 C 296.25 101.06 298.33 101.03 299.96 102.32 C 301.90 106.63 295.27 109.35 296.48 113.58 C 298.49 117.31 302.08 120.48 302.16 125.02 C 302.23 130.99 298.23 136.38 293.05 139.07 C 285.75 143.83 277.26 146.16 268.83 147.97 C 270.24 145.27 271.90 142.72 273.14 139.94 C 270.00 142.84 267.94 146.63 265.58 150.13 L 264.90 149.76 C 265.48 146.86 266.19 143.98 266.66 141.06 C 268.34 137.35 270.96 134.08 272.03 130.09 C 270.69 131.78 269.44 133.54 268.15 135.27 C 268.00 134.41 267.70 132.70 267.55 131.84 C 266.77 134.37 266.19 136.96 265.69 139.55 C 265.34 140.98 264.98 142.40 264.63 143.83 C 264.41 143.56 263.98 143.02 263.77 142.75 C 264.39 137.50 265.89 132.46 267.49 127.45 C 266.06 129.17 265.01 131.16 263.94 133.12 C 264.44 124.13 268.90 113.99 277.98 110.91 C 281.16 109.44 284.37 111.62 287.60 111.60 C 292.18 110.23 292.02 104.54 294.30 101.11 Z"/>
<path fill="#fefefe" opacity="1.00" d=" M 148.28 134.42 C 148.45 134.56 148.78 134.84 148.95 134.98 C 148.78 134.84 148.45 134.56 148.28 134.42 Z"/>
<path fill="#fefefe" opacity="1.00" d=" M 148.95 134.98 C 149.06 135.08 149.29 135.28 149.40 135.38 C 149.29 135.28 149.06 135.08 148.95 134.98 Z"/>
<path fill="#fefefe" opacity="1.00" d=" M 212.40 174.39 C 213.91 174.52 215.43 174.63 216.94 174.89 C 219.70 175.33 221.42 178.13 224.21 178.44 C 226.66 178.88 229.75 178.29 231.35 180.70 C 234.96 185.28 237.27 191.13 237.08 197.03 C 237.11 204.07 230.28 208.40 228.53 214.86 C 227.44 215.45 226.33 216.03 225.23 216.60 C 225.33 215.06 225.47 213.52 225.59 211.99 C 222.05 211.93 219.48 214.48 216.98 216.60 C 215.26 215.42 213.51 214.28 211.87 213.00 C 208.44 208.35 205.38 203.01 205.67 197.02 C 205.95 189.21 206.06 179.99 212.40 174.39 Z"/>
</g>
<g id="#393939ff">
<path fill="#393939" opacity="1.00" d=" M 185.37 80.48 C 187.35 79.53 188.96 81.53 190.47 82.51 C 195.21 86.48 200.49 90.86 201.82 97.22 C 203.09 102.24 204.03 108.25 200.67 112.68 C 199.62 113.98 198.67 116.02 196.66 115.70 C 198.93 112.88 201.70 109.90 201.63 106.03 C 201.61 100.52 200.71 94.43 196.75 90.29 C 193.63 86.78 190.23 83.44 186.17 81.03 C 185.31 81.94 184.00 82.71 183.97 84.12 C 182.65 95.81 180.07 108.10 172.47 117.44 C 171.97 115.22 173.92 113.45 174.45 111.41 C 177.32 104.88 176.71 97.63 177.90 90.76 C 179.32 86.82 181.16 82.12 185.37 80.48 M 178.22 104.15 C 180.35 98.14 182.15 91.80 182.10 85.36 C 177.56 90.42 178.61 97.87 178.22 104.15 Z"/>
<path fill="#393939" opacity="1.00" d=" M 178.81 303.73 C 187.84 287.74 198.03 272.32 205.74 255.63 C 206.44 257.15 207.13 258.69 207.83 260.23 C 201.75 273.74 197.64 288.49 188.08 300.12 C 186.26 301.14 184.35 301.99 182.46 302.88 C 184.75 298.12 188.04 293.89 189.97 288.95 C 186.28 294.40 182.90 300.07 179.88 305.91 C 179.34 306.89 178.83 307.88 178.37 308.91 C 178.55 309.31 178.91 310.12 179.09 310.52 L 178.44 311.16 C 178.06 311.13 177.28 311.08 176.90 311.06 C 175.85 310.91 174.81 310.73 173.78 310.52 C 176.52 309.21 177.69 306.35 178.81 303.73 Z"/>
</g>
<g id="#fdfdfdff">
<path fill="#fdfdfd" opacity="1.00" d=" M 186.17 81.03 C 190.23 83.44 193.63 86.78 196.75 90.29 C 200.71 94.43 201.61 100.52 201.63 106.03 C 201.70 109.90 198.93 112.88 196.66 115.70 C 194.94 117.01 193.26 118.40 191.33 119.38 C 188.73 120.29 185.84 120.22 183.37 121.51 C 179.52 123.47 176.99 127.12 173.64 129.73 C 169.18 133.23 165.73 137.78 162.29 142.24 C 160.11 145.05 158.49 148.45 155.41 150.44 C 152.12 152.86 147.84 152.38 144.04 153.19 C 140.39 153.76 137.06 155.42 133.90 157.24 C 131.45 153.36 127.04 152.21 122.98 150.82 C 122.97 146.54 127.61 144.92 130.86 143.49 C 135.40 142.97 139.49 145.87 144.03 145.19 C 147.11 145.01 149.94 143.65 152.96 143.19 C 154.97 143.65 156.90 144.40 158.90 144.91 C 158.85 142.59 157.88 140.49 156.66 138.57 C 157.44 138.68 158.21 138.79 158.99 138.91 C 159.42 140.06 159.93 141.18 160.47 142.29 C 161.00 138.14 160.48 133.59 162.91 129.94 C 165.72 125.49 169.71 121.94 172.47 117.44 C 180.07 108.10 182.65 95.81 183.97 84.12 C 184.00 82.71 185.31 81.94 186.17 81.03 Z"/>
<path fill="#fdfdfd" opacity="1.00" d=" M 236.93 93.87 C 242.03 91.14 247.95 90.96 253.56 90.17 C 257.01 97.13 262.18 103.42 263.72 111.19 C 265.38 122.19 261.67 132.99 261.49 143.98 C 261.07 135.21 261.64 126.40 260.15 117.71 C 259.24 117.35 258.29 117.18 257.29 117.20 C 257.20 117.84 257.02 119.12 256.93 119.76 C 260.51 122.95 260.32 127.88 259.71 132.24 C 258.39 129.27 257.15 126.16 254.78 123.85 C 255.07 126.65 256.06 129.30 257.12 131.89 C 256.08 131.27 255.04 130.64 254.00 130.02 C 255.25 132.76 255.46 135.74 255.61 138.70 C 256.07 141.10 258.05 143.44 257.28 145.95 C 255.57 141.91 253.79 137.48 250.05 134.88 C 251.49 137.68 253.32 140.26 254.58 143.16 C 252.21 141.32 249.55 140.01 246.70 139.14 C 242.86 135.74 241.93 130.20 238.47 126.46 C 235.95 123.77 232.88 121.02 229.03 120.81 C 225.24 120.64 221.46 121.04 217.67 120.93 C 217.17 116.70 218.78 112.60 221.23 109.22 C 225.49 103.25 230.29 97.30 236.93 93.87 M 237.28 97.81 C 239.49 101.35 240.11 105.82 242.85 108.97 C 241.84 105.05 241.26 99.85 237.28 97.81 M 240.92 111.12 C 242.39 114.44 245.56 116.89 249.00 117.91 C 247.01 114.98 243.57 113.40 240.92 111.12 Z"/>
<path fill="#fdfdfd" opacity="1.00" d=" M 112.91 103.95 C 114.81 100.38 119.31 100.19 122.86 99.95 C 124.00 101.21 125.36 102.26 126.68 103.33 C 126.22 106.02 125.20 108.71 125.46 111.45 C 126.73 112.67 128.28 113.54 129.75 114.50 C 130.10 115.82 130.42 117.15 130.81 118.46 C 131.30 120.94 134.02 121.82 135.82 123.21 C 140.68 126.05 145.20 129.62 148.28 134.42 C 144.58 131.82 140.39 129.59 135.69 130.12 C 138.94 132.19 143.16 132.23 146.01 135.00 C 148.17 137.04 151.08 138.69 152.06 141.65 C 146.71 143.38 139.75 145.36 135.09 141.06 C 133.64 139.89 132.34 138.33 130.48 137.83 C 128.68 137.75 126.93 138.26 125.14 138.27 C 121.55 136.70 121.17 132.05 118.16 129.85 C 115.51 128.42 111.50 129.08 110.02 125.93 C 105.96 118.90 109.20 110.39 112.91 103.95 Z"/>
<path fill="#fdfdfd" opacity="1.00" d=" M 192.37 127.22 C 195.47 126.45 197.22 123.51 199.85 121.92 C 199.76 128.83 198.39 135.90 194.94 141.93 C 188.76 149.39 177.56 154.07 168.26 149.84 C 165.70 148.83 163.12 147.89 160.52 147.01 C 164.82 140.10 169.86 133.21 176.86 128.83 C 181.91 127.62 187.27 128.36 192.37 127.22 Z"/>
<path fill="#fdfdfd" opacity="1.00" d=" M 306.96 193.60 C 311.22 192.93 315.58 193.13 319.80 193.95 C 324.27 195.95 327.24 200.02 330.41 203.57 C 331.93 205.41 333.70 207.10 334.74 209.28 C 335.16 212.66 332.73 215.37 331.38 218.23 C 330.75 220.69 332.25 224.14 329.58 225.67 C 319.54 230.14 307.94 228.92 297.99 224.82 C 299.36 220.71 305.82 222.00 308.71 219.70 C 309.21 218.11 307.52 217.53 306.25 217.85 C 305.26 218.67 304.38 219.63 303.33 220.38 C 298.20 220.86 293.09 221.79 288.06 223.03 C 289.03 219.71 292.11 217.89 294.96 216.33 C 294.38 216.31 293.22 216.26 292.64 216.24 L 292.52 215.21 C 298.01 208.50 304.92 202.40 306.96 193.60 Z"/>
<path fill="#fdfdfd" opacity="1.00" d=" M 287.28 319.31 C 291.16 315.29 295.50 311.17 301.03 309.67 C 300.15 312.89 297.10 314.66 295.42 317.39 C 290.43 324.94 294.38 334.73 290.71 342.74 C 289.53 344.86 288.39 347.21 286.22 348.50 C 284.45 347.00 282.80 345.30 280.68 344.29 C 278.35 343.78 275.97 344.41 273.65 344.71 C 274.73 339.72 275.46 334.50 278.00 329.98 C 280.22 325.73 284.37 323.04 287.28 319.31 Z"/>
</g>
<g id="#fcfcfcff">
<path fill="#fcfcfc" opacity="1.00" d=" M 178.22 104.15 C 178.61 97.87 177.56 90.42 182.10 85.36 C 182.15 91.80 180.35 98.14 178.22 104.15 Z"/>
<path fill="#fcfcfc" opacity="1.00" d=" M 129.08 95.70 C 130.38 96.51 131.24 97.78 131.99 99.09 C 131.18 100.19 130.24 101.18 129.19 102.05 C 129.06 99.93 129.03 97.81 129.08 95.70 Z"/>
<path fill="#fcfcfc" opacity="1.00" d=" M 214.18 122.09 C 219.60 122.63 225.09 121.76 230.48 122.51 C 236.43 124.51 239.74 130.36 242.31 135.69 C 245.12 139.74 247.60 144.40 251.87 147.10 C 250.68 144.87 249.26 142.76 248.26 140.43 C 251.56 142.00 253.90 144.88 256.48 147.36 C 256.90 149.50 257.63 151.56 258.69 153.47 C 259.74 151.77 260.74 150.05 261.69 148.29 C 262.17 149.22 262.67 150.15 263.16 151.08 C 262.44 151.70 261.72 152.33 261.02 152.98 C 261.19 153.14 261.53 153.45 261.70 153.61 C 268.35 160.94 279.26 160.67 288.35 160.27 C 279.23 166.74 267.02 170.73 256.06 166.97 C 251.72 165.60 251.66 160.19 248.22 157.82 C 246.03 156.11 245.28 153.32 243.93 151.01 C 243.95 154.73 245.73 158.11 248.50 160.51 C 250.61 162.21 250.60 165.04 250.92 167.48 C 250.38 167.37 249.32 167.15 248.79 167.04 L 247.83 166.85 C 247.97 166.29 248.24 165.15 248.37 164.59 C 248.62 164.16 249.11 163.32 249.36 162.90 C 245.83 161.84 242.15 161.03 239.01 158.99 C 233.52 155.58 229.11 150.66 223.19 147.87 C 223.74 138.44 220.19 129.26 214.18 122.09 Z"/>
<path fill="#fcfcfc" opacity="1.00" d=" M 306.46 125.31 C 309.38 124.58 312.96 121.61 315.66 124.31 C 317.79 126.20 317.36 129.23 317.06 131.74 C 315.78 132.37 314.49 132.99 313.20 133.59 C 312.49 137.86 311.26 142.15 308.68 145.69 C 304.03 152.06 296.64 155.94 289.29 158.33 C 281.21 160.12 272.36 158.98 265.05 155.04 C 265.64 153.58 266.21 152.10 266.74 150.61 C 273.69 147.49 281.60 147.05 288.33 143.33 C 293.44 140.49 299.52 137.77 301.81 131.95 C 303.07 129.53 303.13 125.80 306.46 125.31 Z"/>
<path fill="#fcfcfc" opacity="1.00" d=" M 149.03 153.80 C 152.15 153.76 154.81 152.02 157.60 150.85 C 155.94 156.39 151.92 160.96 147.37 164.40 C 143.57 166.79 139.00 164.74 135.01 163.98 C 129.38 163.19 125.92 157.79 124.04 152.89 C 126.10 153.36 128.29 153.68 130.12 154.82 C 131.66 156.14 132.23 158.16 133.08 159.93 C 137.22 155.62 143.26 154.17 149.03 153.80 Z"/>
<path fill="#fcfcfc" opacity="1.00" d=" M 206.32 294.56 C 206.95 292.99 206.78 290.89 208.29 289.82 C 208.50 291.12 208.44 292.56 209.36 293.62 C 212.78 298.70 216.05 304.05 217.19 310.16 C 218.64 321.14 218.58 332.51 215.22 343.15 C 216.48 341.94 217.02 340.23 217.40 338.58 C 219.16 330.84 218.96 322.81 218.57 314.93 C 218.41 309.36 216.69 303.86 213.80 299.10 C 212.34 296.54 210.48 294.20 209.49 291.40 C 214.72 293.20 219.29 297.05 222.39 301.65 C 226.48 308.63 227.08 317.02 225.95 324.88 C 224.39 333.03 221.19 341.84 213.67 346.27 C 214.37 337.49 209.07 330.12 205.40 322.63 C 204.65 319.12 203.43 315.75 201.31 312.82 C 201.07 310.24 201.19 307.60 201.67 305.06 C 202.73 301.35 205.41 298.34 206.32 294.56 Z"/>
<path fill="#fcfcfc" opacity="1.00" d=" M 144.33 313.26 C 148.61 311.95 153.12 312.50 157.45 313.20 C 161.05 314.10 164.77 314.54 168.31 315.66 C 172.04 316.91 174.77 319.87 177.89 322.12 C 180.39 323.90 182.77 325.92 184.48 328.50 C 188.88 335.20 193.23 342.17 195.01 350.09 C 189.32 342.53 183.28 335.08 175.59 329.43 C 171.07 326.50 165.69 325.25 160.40 324.58 C 149.13 323.15 137.74 323.68 126.41 323.67 C 124.86 323.47 123.31 323.23 121.77 322.92 C 124.29 321.43 127.30 321.15 129.89 319.80 C 134.61 317.43 139.12 314.48 144.33 313.26 Z"/>
<path fill="#fcfcfc" opacity="1.00" d=" M 271.70 347.88 C 273.94 346.20 276.79 345.18 279.60 345.40 C 282.14 346.28 284.17 348.32 285.67 350.50 C 285.84 350.85 286.17 351.54 286.33 351.89 C 286.86 355.21 286.62 358.58 286.98 361.91 C 287.60 364.64 291.25 365.37 291.74 368.18 C 292.24 369.84 292.68 371.52 293.14 373.20 C 288.91 371.95 285.09 369.72 281.12 367.86 C 278.95 366.86 276.86 365.45 275.73 363.28 C 273.20 358.50 273.29 352.95 271.70 347.88 Z"/>
</g>
<g id="#404040ff">
<path fill="#404040" opacity="1.00" d=" M 238.59 91.59 C 243.47 89.53 248.88 89.72 253.95 88.40 C 257.00 92.98 259.38 97.97 262.21 102.69 C 265.48 108.26 265.92 114.89 265.06 121.17 C 267.42 118.17 269.28 114.71 272.21 112.19 C 277.16 108.34 283.06 105.93 287.89 101.90 C 291.70 99.02 298.36 98.17 301.50 102.50 C 303.59 109.54 303.40 117.01 303.90 124.28 C 307.19 124.55 309.86 122.10 313.02 121.67 C 315.46 121.59 317.32 123.62 318.29 125.66 C 319.38 129.69 318.36 133.95 316.71 137.69 C 315.00 141.66 313.56 146.32 309.61 148.67 C 306.05 150.68 302.99 153.45 299.43 155.47 C 296.91 157.02 294.01 157.89 291.63 159.67 C 281.31 167.76 267.12 172.56 254.27 168.07 C 250.34 173.63 249.26 180.47 246.62 186.62 C 244.98 191.12 242.51 195.24 240.72 199.67 C 238.61 204.71 235.10 209.00 232.95 214.01 C 244.62 209.79 251.95 197.73 253.08 185.73 C 253.83 186.76 254.49 187.84 255.13 188.94 C 259.02 187.59 265.19 184.01 268.09 188.65 C 264.62 187.41 260.63 187.23 257.52 189.47 C 255.55 190.57 255.43 192.98 255.33 194.97 C 255.38 199.43 253.42 203.75 250.59 207.12 L 249.52 206.70 C 252.08 202.16 254.26 197.26 253.90 191.91 C 251.21 198.15 248.47 204.66 243.27 209.28 C 238.85 213.78 232.14 215.06 228.07 219.97 C 227.61 219.76 226.69 219.34 226.23 219.14 C 227.32 217.90 228.48 216.60 228.53 214.86 C 230.28 208.40 237.11 204.07 237.08 197.03 C 237.27 191.13 234.96 185.28 231.35 180.70 C 229.75 178.29 226.66 178.88 224.21 178.44 C 221.42 178.13 219.70 175.33 216.94 174.89 C 215.43 174.63 213.91 174.52 212.40 174.39 C 206.06 179.99 205.95 189.21 205.67 197.02 C 205.38 203.01 208.44 208.35 211.87 213.00 C 210.93 213.96 210.00 214.91 209.07 215.86 C 203.58 211.40 203.02 203.89 199.28 198.28 C 199.39 196.35 199.44 194.43 199.51 192.51 C 200.73 186.66 201.87 180.80 204.13 175.25 C 201.61 173.65 198.23 172.86 196.78 170.03 C 199.60 171.17 202.23 172.73 204.98 174.03 C 208.18 170.77 211.70 167.88 215.60 165.51 C 219.81 159.27 215.84 148.59 208.05 147.48 C 207.05 148.20 206.06 148.92 205.07 149.65 C 205.22 147.75 205.84 145.77 205.22 143.91 C 204.00 141.82 201.85 140.52 200.06 138.96 C 200.73 138.99 202.06 139.06 202.72 139.10 C 205.07 140.68 206.49 143.13 207.36 145.76 C 210.57 146.86 214.16 147.82 215.97 150.99 C 218.95 154.88 218.94 160.12 218.05 164.72 C 220.53 165.31 222.87 166.33 225.15 167.46 C 226.06 167.07 226.98 166.67 227.91 166.29 C 232.61 169.28 236.43 173.85 237.66 179.37 C 239.12 184.90 238.59 190.68 238.91 196.33 C 242.27 192.14 243.61 186.78 245.89 182.00 C 248.17 177.42 249.78 172.18 248.79 167.04 C 249.32 167.15 250.38 167.37 250.92 167.48 C 250.60 165.04 250.61 162.21 248.50 160.51 C 245.73 158.11 243.95 154.73 243.93 151.01 C 245.28 153.32 246.03 156.11 248.22 157.82 C 251.66 160.19 251.72 165.60 256.06 166.97 C 267.02 170.73 279.23 166.74 288.35 160.27 C 279.26 160.67 268.35 160.94 261.70 153.61 C 262.82 154.08 263.94 154.54 265.05 155.04 C 272.36 158.98 281.21 160.12 289.29 158.33 C 296.64 155.94 304.03 152.06 308.68 145.69 C 311.26 142.15 312.49 137.86 313.20 133.59 C 314.49 132.99 315.78 132.37 317.06 131.74 C 317.36 129.23 317.79 126.20 315.66 124.31 C 312.96 121.61 309.38 124.58 306.46 125.31 C 303.13 125.80 303.07 129.53 301.81 131.95 C 299.52 137.77 293.44 140.49 288.33 143.33 C 281.60 147.05 273.69 147.49 266.74 150.61 C 266.45 150.49 265.87 150.25 265.58 150.13 C 267.94 146.63 270.00 142.84 273.14 139.94 C 271.90 142.72 270.24 145.27 268.83 147.97 C 277.26 146.16 285.75 143.83 293.05 139.07 C 298.23 136.38 302.23 130.99 302.16 125.02 C 302.08 120.48 298.49 117.31 296.48 113.58 C 295.27 109.35 301.90 106.63 299.96 102.32 C 298.33 101.03 296.25 101.06 294.30 101.11 C 292.02 104.54 292.18 110.23 287.60 111.60 C 284.37 111.62 281.16 109.44 277.98 110.91 C 268.90 113.99 264.44 124.13 263.94 133.12 C 265.01 131.16 266.06 129.17 267.49 127.45 C 265.89 132.46 264.39 137.50 263.77 142.75 C 263.46 144.04 263.12 145.34 262.80 146.63 C 261.53 146.80 260.26 146.96 258.99 147.11 C 259.67 143.40 260.52 139.60 259.35 135.90 C 259.42 134.67 259.58 133.46 259.71 132.24 C 260.32 127.88 260.51 122.95 256.93 119.76 C 257.02 119.12 257.20 117.84 257.29 117.20 C 258.29 117.18 259.24 117.35 260.15 117.71 C 261.64 126.40 261.07 135.21 261.49 143.98 C 261.67 132.99 265.38 122.19 263.72 111.19 C 262.18 103.42 257.01 97.13 253.56 90.17 C 247.95 90.96 242.03 91.14 236.93 93.87 C 230.29 97.30 225.49 103.25 221.23 109.22 C 218.78 112.60 217.17 116.70 217.67 120.93 C 221.46 121.04 225.24 120.64 229.03 120.81 C 232.88 121.02 235.95 123.77 238.47 126.46 C 241.93 130.20 242.86 135.74 246.70 139.14 C 249.55 140.01 252.21 141.32 254.58 143.16 C 253.32 140.26 251.49 137.68 250.05 134.88 C 253.79 137.48 255.57 141.91 257.28 145.95 C 257.08 146.30 256.68 147.01 256.48 147.36 C 253.90 144.88 251.56 142.00 248.26 140.43 C 249.26 142.76 250.68 144.87 251.87 147.10 C 247.60 144.40 245.12 139.74 242.31 135.69 C 239.74 130.36 236.43 124.51 230.48 122.51 C 225.09 121.76 219.60 122.63 214.18 122.09 C 220.19 129.26 223.74 138.44 223.19 147.87 C 229.11 150.66 233.52 155.58 239.01 158.99 C 242.15 161.03 245.83 161.84 249.36 162.90 C 249.11 163.32 248.62 164.16 248.37 164.59 C 244.69 163.51 241.08 162.11 237.26 161.62 C 232.87 161.01 228.28 160.18 224.77 157.27 C 217.28 151.61 215.07 141.93 212.62 133.38 C 211.27 129.48 211.27 125.33 211.32 121.25 C 212.88 121.04 214.45 120.83 216.02 120.65 C 216.34 117.21 216.75 113.66 218.75 110.73 C 223.58 102.86 229.90 95.27 238.59 91.59 M 280.95 108.68 C 283.41 109.40 286.10 110.93 288.67 109.74 C 290.85 107.39 291.41 104.01 292.33 101.03 C 288.16 102.96 284.69 106.07 280.95 108.68 M 297.80 112.92 C 298.92 115.15 300.38 117.20 302.04 119.05 C 302.22 115.05 301.84 111.02 301.03 107.10 C 299.29 108.46 297.67 110.63 297.80 112.92 M 212.60 123.43 C 212.59 125.86 212.69 128.30 213.35 130.65 C 215.11 137.24 216.67 144.00 220.08 149.97 C 223.64 155.94 230.25 159.89 237.22 160.08 C 235.12 157.70 232.25 156.22 230.01 153.98 C 227.71 151.63 224.64 150.30 221.53 149.38 C 221.75 144.28 221.95 139.01 219.71 134.27 C 217.87 130.42 216.50 125.68 212.60 123.43 M 314.77 134.80 C 313.79 137.93 312.69 141.03 311.82 144.20 C 314.11 141.28 315.51 137.68 316.10 134.03 C 315.77 134.22 315.10 134.61 314.77 134.80 M 205.48 176.57 C 200.66 185.96 200.34 197.49 204.79 207.09 C 206.14 209.76 207.25 213.31 210.32 214.41 C 209.19 210.31 205.93 207.16 205.05 202.97 C 203.75 197.13 204.55 191.08 205.42 185.23 C 206.03 181.54 207.25 177.71 209.96 175.01 C 211.86 172.67 215.27 173.34 217.59 171.63 C 219.59 170.28 222.70 170.57 224.00 168.35 C 222.04 167.72 220.16 166.33 218.04 166.51 C 212.74 168.06 208.28 171.87 205.48 176.57 M 227.13 167.80 C 226.69 168.38 225.82 169.55 225.39 170.14 C 227.23 171.17 229.41 171.58 231.06 172.97 C 229.09 172.93 227.19 172.40 225.38 171.65 C 222.84 170.41 220.17 172.28 217.72 172.97 C 219.79 174.42 221.77 176.06 224.09 177.11 C 226.31 177.47 228.87 176.77 230.82 178.18 C 233.81 180.54 234.97 184.33 237.12 187.34 C 237.43 179.81 234.33 171.15 227.13 167.80 Z"/>
</g>
<g id="#111111ff">
<path fill="#111111" opacity="1.00" d=" M 112.90 101.88 C 115.44 99.81 119.38 97.77 122.64 99.10 L 122.86 99.95 C 119.31 100.19 114.81 100.38 112.91 103.95 C 109.20 110.39 105.96 118.90 110.02 125.93 C 111.50 129.08 115.51 128.42 118.16 129.85 C 121.17 132.05 121.55 136.70 125.14 138.27 C 126.93 138.26 128.68 137.75 130.48 137.83 C 132.34 138.33 133.64 139.89 135.09 141.06 C 133.70 141.90 132.30 142.73 130.86 143.49 C 127.61 144.92 122.97 146.54 122.98 150.82 C 127.04 152.21 131.45 153.36 133.90 157.24 C 137.06 155.42 140.39 153.76 144.04 153.19 C 147.84 152.38 152.12 152.86 155.41 150.44 C 158.49 148.45 160.11 145.05 162.29 142.24 C 165.73 137.78 169.18 133.23 173.64 129.73 C 176.99 127.12 179.52 123.47 183.37 121.51 C 185.84 120.22 188.73 120.29 191.33 119.38 C 193.26 118.40 194.94 117.01 196.66 115.70 C 196.80 118.24 193.36 118.28 192.62 120.42 C 196.31 121.58 199.10 119.14 201.65 116.92 C 201.20 122.51 200.91 128.19 199.39 133.62 C 198.21 137.40 197.19 141.46 194.29 144.35 C 189.20 149.29 182.30 152.59 175.12 152.49 C 172.27 152.30 169.52 151.47 166.71 151.04 C 168.33 158.19 173.45 163.76 177.20 169.87 C 177.80 172.22 178.24 174.61 178.92 176.95 C 173.93 174.48 168.03 170.83 162.40 173.27 C 157.36 178.04 162.18 188.04 168.96 187.39 C 171.95 187.46 174.84 186.48 177.81 186.37 C 180.33 186.92 182.55 188.74 185.25 188.44 C 185.44 188.76 185.83 189.39 186.03 189.71 C 183.15 189.90 180.70 188.32 178.04 187.55 C 173.92 187.34 169.81 189.64 165.76 188.13 C 161.83 186.55 158.76 182.35 159.31 177.99 C 159.10 175.41 160.89 173.40 161.99 171.25 C 160.58 169.13 158.07 167.12 158.57 164.30 C 159.39 161.23 161.42 158.68 163.00 155.97 C 162.58 154.43 162.08 152.91 161.57 151.41 C 160.38 151.81 158.66 151.73 158.14 153.13 C 155.49 158.16 152.05 163.12 146.97 165.93 C 143.11 167.89 138.85 165.89 134.94 165.14 C 127.40 164.09 123.70 156.28 121.63 149.81 C 122.17 145.50 127.40 144.46 129.99 141.91 C 126.28 140.84 122.24 140.32 119.09 137.91 C 116.31 136.00 114.84 132.83 112.37 130.61 C 107.97 126.93 105.85 120.62 107.29 115.04 C 108.18 110.34 110.13 105.79 112.90 101.88 M 183.00 122.90 C 181.33 124.12 178.76 125.02 178.44 127.32 C 182.68 127.50 186.94 127.26 191.11 126.39 C 193.94 126.00 196.57 124.10 197.81 121.54 C 192.89 121.89 187.40 119.77 183.00 122.90 M 192.37 127.22 C 187.27 128.36 181.91 127.62 176.86 128.83 C 169.86 133.21 164.82 140.10 160.52 147.01 C 160.05 147.96 159.57 148.91 159.11 149.87 C 162.16 150.66 165.38 151.80 168.26 149.84 C 177.56 154.07 188.76 149.39 194.94 141.93 C 198.39 135.90 199.76 128.83 199.85 121.92 C 197.22 123.51 195.47 126.45 192.37 127.22 M 114.03 129.78 C 115.94 132.68 117.63 136.54 121.36 137.39 C 120.27 133.90 118.27 129.80 114.03 129.78 M 121.36 137.39 C 121.91 137.87 121.91 137.87 121.36 137.39 M 128.36 139.20 C 128.34 140.82 131.25 141.18 132.50 140.78 C 132.49 139.19 129.61 138.36 128.36 139.20 M 149.03 153.80 C 143.26 154.17 137.22 155.62 133.08 159.93 C 132.23 158.16 131.66 156.14 130.12 154.82 C 128.29 153.68 126.10 153.36 124.04 152.89 C 125.92 157.79 129.38 163.19 135.01 163.98 C 139.00 164.74 143.57 166.79 147.37 164.40 C 151.92 160.96 155.94 156.39 157.60 150.85 C 154.81 152.02 152.15 153.76 149.03 153.80 M 164.43 154.87 C 162.93 158.32 160.85 161.49 159.53 165.02 C 160.66 167.83 162.33 171.71 165.99 171.34 C 170.12 171.38 173.81 173.44 177.40 175.25 C 175.35 170.11 172.18 165.49 169.07 160.96 C 167.06 159.28 165.32 157.37 164.43 154.87 Z"/>
</g>
<g id="#fbfbfbff">
<path fill="#fbfbfb" opacity="1.00" d=" M 280.95 108.68 C 284.69 106.07 288.16 102.96 292.33 101.03 C 291.41 104.01 290.85 107.39 288.67 109.74 C 286.10 110.93 283.41 109.40 280.95 108.68 Z"/>
<path fill="#fbfbfb" opacity="1.00" d=" M 164.43 154.87 C 165.32 157.37 167.06 159.28 169.07 160.96 C 172.18 165.49 175.35 170.11 177.40 175.25 C 173.81 173.44 170.12 171.38 165.99 171.34 C 162.33 171.71 160.66 167.83 159.53 165.02 C 160.85 161.49 162.93 158.32 164.43 154.87 Z"/>
<path fill="#fbfbfb" opacity="1.00" d=" M 162.40 173.27 C 168.03 170.83 173.93 174.48 178.92 176.95 C 180.97 180.81 183.25 184.55 185.25 188.44 C 182.55 188.74 180.33 186.92 177.81 186.37 C 174.84 186.48 171.95 187.46 168.96 187.39 C 162.18 188.04 157.36 178.04 162.40 173.27 Z"/>
<path fill="#fbfbfb" opacity="1.00" d=" M 243.27 209.28 C 248.47 204.66 251.21 198.15 253.90 191.91 C 254.26 197.26 252.08 202.16 249.52 206.70 C 248.98 207.84 248.51 209.02 248.03 210.20 L 247.74 210.89 C 245.51 216.74 241.62 221.83 237.38 226.37 C 235.18 228.92 231.90 229.95 228.72 230.63 C 228.32 230.71 227.52 230.88 227.12 230.97 C 223.58 231.56 220.34 233.14 217.19 234.80 C 217.10 234.41 216.93 233.63 216.84 233.24 C 220.42 228.67 225.04 225.00 228.07 219.97 C 232.14 215.06 238.85 213.78 243.27 209.28 Z"/>
<path fill="#fbfbfb" opacity="1.00" d=" M 157.92 198.98 C 170.25 197.62 183.51 198.40 194.60 204.43 C 199.02 210.34 201.82 217.39 205.13 223.97 C 198.18 219.01 190.53 214.90 182.24 212.68 C 164.87 205.88 145.67 206.87 127.55 209.45 C 123.22 209.95 118.95 210.89 114.59 211.02 C 116.80 208.80 119.97 208.08 122.73 206.77 C 130.69 203.14 139.33 201.33 147.95 200.10 C 156.48 198.76 164.03 203.91 171.98 205.94 C 168.36 202.19 162.89 201.65 158.29 199.71 L 157.92 198.98 Z"/>
<path fill="#fbfbfb" opacity="1.00" d=" M 151.51 218.85 C 157.28 219.20 161.42 224.05 167.09 224.77 C 175.73 226.23 184.55 224.67 193.22 225.75 C 198.32 226.63 203.35 227.88 208.32 229.34 C 197.34 232.20 185.82 232.34 174.55 231.69 C 169.98 230.95 164.96 230.79 161.13 227.89 C 157.61 225.24 154.29 222.27 151.51 218.85 Z"/>
<path fill="#fbfbfb" opacity="1.00" d=" M 245.61 231.03 C 252.04 229.82 258.51 229.62 265.00 230.36 C 264.06 233.42 262.83 236.40 261.22 239.17 C 256.59 236.39 251.74 234.01 246.55 232.47 C 246.32 232.11 245.84 231.39 245.61 231.03 Z"/>
<path fill="#fbfbfb" opacity="1.00" d=" M 294.14 332.15 C 293.63 325.49 294.57 317.60 300.89 313.86 C 302.46 319.63 298.72 324.53 296.48 329.50 C 295.87 330.51 294.95 331.30 294.14 332.15 Z"/>
<path fill="#fbfbfb" opacity="1.00" d=" M 303.09 325.10 C 307.05 320.91 312.64 317.70 318.58 319.34 C 318.82 320.74 319.05 322.15 319.29 323.56 C 322.07 324.21 325.28 325.76 325.61 328.97 C 324.34 336.47 320.11 343.54 313.64 347.69 C 311.41 348.93 308.79 348.95 306.35 349.51 C 306.28 349.92 306.12 350.72 306.04 351.12 C 307.82 351.32 309.63 351.29 311.41 351.61 C 314.43 352.66 316.70 355.10 319.63 356.33 C 322.85 356.76 326.59 356.32 329.00 359.02 C 331.07 360.28 330.46 363.57 328.32 364.40 C 323.30 367.26 317.32 365.40 312.07 364.24 C 315.58 367.95 321.11 367.03 325.71 367.27 C 328.20 368.80 328.39 372.51 326.74 374.73 C 325.03 377.29 323.21 380.02 320.40 381.47 C 318.30 382.51 316.08 381.26 314.01 380.78 C 313.50 382.10 313.05 383.45 312.68 384.82 C 310.25 385.75 307.63 384.91 305.95 383.02 C 306.60 382.14 307.27 381.27 307.93 380.40 C 303.73 379.77 299.98 377.41 297.08 374.39 C 300.96 372.81 305.14 371.12 307.69 367.61 C 308.64 365.56 309.06 363.32 309.33 361.10 C 307.47 359.48 305.63 357.85 303.98 356.03 C 305.70 355.87 307.44 355.73 309.17 355.59 C 309.50 354.42 309.82 353.25 310.13 352.08 C 308.70 351.98 307.28 351.89 305.86 351.83 C 304.28 351.71 302.70 351.59 301.13 351.45 C 300.66 351.34 299.71 351.14 299.24 351.03 C 297.69 350.52 296.17 349.96 294.67 349.37 C 298.15 348.64 302.23 349.57 305.22 347.26 C 300.85 346.92 296.42 347.45 292.34 349.10 C 290.81 349.53 289.25 349.82 287.69 350.11 C 293.44 345.36 301.78 345.88 308.09 342.16 C 302.02 342.10 296.56 345.24 290.67 346.24 C 292.23 343.63 295.81 343.93 298.05 342.15 C 296.29 342.23 294.55 342.48 292.82 342.75 C 293.36 340.00 293.32 337.09 294.38 334.47 C 296.79 330.94 300.14 328.18 303.09 325.10 Z"/>
<path fill="#fbfbfb" opacity="1.00" d=" M 164.84 341.03 C 172.82 341.82 180.41 345.76 186.26 351.14 C 182.11 349.72 178.34 347.42 174.32 345.68 C 171.16 344.14 167.63 343.24 164.84 341.03 Z"/>
<path fill="#fbfbfb" opacity="1.00" d=" M 288.03 352.26 C 289.03 352.42 290.03 352.61 291.03 352.82 C 290.49 353.55 289.87 354.20 289.17 354.76 C 287.88 354.27 287.50 353.43 288.03 352.26 Z"/>
<path fill="#fbfbfb" opacity="1.00" d=" M 296.06 352.69 C 298.62 352.70 301.20 352.80 303.72 353.27 C 303.76 353.68 303.85 354.51 303.89 354.93 C 301.28 354.32 298.62 353.95 295.96 353.65 L 296.06 352.69 Z"/>
<path fill="#fbfbfb" opacity="1.00" d=" M 288.07 355.69 C 292.34 357.22 296.58 359.49 301.25 359.07 C 298.99 357.65 296.30 357.25 293.88 356.19 C 295.95 355.99 298.03 355.86 300.11 355.89 C 303.20 357.04 306.09 359.35 307.92 362.04 C 307.31 368.29 300.57 373.17 294.50 371.48 C 293.27 369.76 293.34 367.49 292.35 365.67 C 290.74 363.86 287.99 362.60 288.05 359.81 C 291.38 361.05 294.44 363.22 298.15 363.09 C 294.81 360.79 288.51 360.65 288.07 355.69 M 293.26 359.04 C 293.40 362.39 296.24 357.54 293.26 359.04 M 296.29 360.06 C 296.50 363.38 299.28 358.49 296.29 360.06 Z"/>
<path fill="#fbfbfb" opacity="1.00" d=" M 218.46 361.97 C 218.43 360.31 219.40 358.38 221.20 358.15 C 224.10 357.89 226.99 359.00 229.29 360.73 C 231.26 362.37 231.82 365.01 232.97 367.20 C 233.68 369.32 236.05 369.96 237.73 371.12 C 234.00 373.36 229.53 375.31 225.13 374.10 C 220.80 371.84 217.77 366.91 218.46 361.97 Z"/>
</g>
<g id="#0a0a0aff">
<path fill="#0a0a0a" opacity="1.00" d=" M 144.35 108.01 C 145.20 105.80 147.26 105.20 149.42 105.58 C 149.46 107.02 149.38 108.47 149.20 109.90 C 148.67 109.99 147.61 110.15 147.07 110.24 C 146.14 109.53 145.23 108.78 144.35 108.01 Z"/>
</g>
<g id="#fafafaff">
<path fill="#fafafa" opacity="1.00" d=" M 297.80 112.92 C 297.67 110.63 299.29 108.46 301.03 107.10 C 301.84 111.02 302.22 115.05 302.04 119.05 C 300.38 117.20 298.92 115.15 297.80 112.92 Z"/>
<path fill="#fafafa" opacity="1.00" d=" M 183.00 122.90 C 187.40 119.77 192.89 121.89 197.81 121.54 C 196.57 124.10 193.94 126.00 191.11 126.39 C 186.94 127.26 182.68 127.50 178.44 127.32 C 178.76 125.02 181.33 124.12 183.00 122.90 Z"/>
<path fill="#fafafa" opacity="1.00" d=" M 212.60 123.43 C 216.50 125.68 217.87 130.42 219.71 134.27 C 221.95 139.01 221.75 144.28 221.53 149.38 C 224.64 150.30 227.71 151.63 230.01 153.98 C 232.25 156.22 235.12 157.70 237.22 160.08 C 230.25 159.89 223.64 155.94 220.08 149.97 C 216.67 144.00 215.11 137.24 213.35 130.65 C 212.69 128.30 212.59 125.86 212.60 123.43 Z"/>
<path fill="#fafafa" opacity="1.00" d=" M 194.29 144.35 C 197.19 141.46 198.21 137.40 199.39 133.62 C 200.73 135.29 201.88 137.12 202.72 139.10 C 202.06 139.06 200.73 138.99 200.06 138.96 C 201.85 140.52 204.00 141.82 205.22 143.91 C 205.84 145.77 205.22 147.75 205.07 149.65 C 206.06 148.92 207.05 148.20 208.05 147.48 C 215.84 148.59 219.81 159.27 215.60 165.51 C 211.70 167.88 208.18 170.77 204.98 174.03 C 202.23 172.73 199.60 171.17 196.78 170.03 C 198.23 172.86 201.61 173.65 204.13 175.25 C 201.87 180.80 200.73 186.66 199.51 192.51 C 196.03 185.69 194.46 178.09 190.97 171.31 C 192.74 169.89 194.66 168.67 196.65 167.60 C 197.37 163.43 198.44 159.30 200.45 155.55 C 196.88 157.77 196.84 162.30 195.67 165.90 C 194.62 166.00 193.60 165.91 192.62 165.61 C 190.52 163.18 188.59 160.59 187.67 157.47 C 187.49 160.66 187.91 163.85 187.70 167.04 C 184.48 163.33 180.30 160.50 175.65 158.93 C 176.97 161.16 179.67 161.81 181.53 163.46 C 182.78 165.90 183.82 168.43 184.99 170.91 C 184.51 172.36 184.03 173.81 183.58 175.27 C 184.83 174.78 186.08 174.29 187.33 173.80 C 186.84 176.18 186.32 178.57 186.09 181.00 C 187.29 179.00 187.04 175.46 189.93 175.20 C 191.27 178.10 192.39 181.11 193.23 184.20 C 191.74 184.59 189.67 184.08 188.84 185.73 C 190.57 185.71 192.30 185.61 194.03 185.51 C 195.55 189.87 196.25 194.60 199.28 198.28 C 203.02 203.89 203.58 211.40 209.07 215.86 C 210.85 217.44 213.01 218.68 214.39 220.66 C 215.30 223.53 214.31 226.56 213.25 229.25 C 212.26 230.36 211.55 229.15 210.87 228.43 C 208.54 221.56 203.99 215.76 200.93 209.23 C 197.05 201.01 192.64 193.04 187.53 185.52 C 183.95 180.39 181.27 174.66 177.20 169.87 C 173.45 163.76 168.33 158.19 166.71 151.04 C 169.52 151.47 172.27 152.30 175.12 152.49 C 182.30 152.59 189.20 149.29 194.29 144.35 M 204.03 162.99 C 205.76 161.45 206.90 159.35 206.95 157.01 C 205.21 158.55 204.36 160.74 204.03 162.99 Z"/>
<path fill="#fafafa" opacity="1.00" d=" M 205.48 176.57 C 208.28 171.87 212.74 168.06 218.04 166.51 C 220.16 166.33 222.04 167.72 224.00 168.35 C 222.70 170.57 219.59 170.28 217.59 171.63 C 215.27 173.34 211.86 172.67 209.96 175.01 C 207.25 177.71 206.03 181.54 205.42 185.23 C 204.55 191.08 203.75 197.13 205.05 202.97 C 205.93 207.16 209.19 210.31 210.32 214.41 C 207.25 213.31 206.14 209.76 204.79 207.09 C 200.34 197.49 200.66 185.96 205.48 176.57 Z"/>
<path fill="#fafafa" opacity="1.00" d=" M 283.46 224.06 C 284.55 223.81 285.64 223.57 286.74 223.33 C 287.01 223.59 287.56 224.11 287.84 224.37 C 286.48 225.04 285.12 225.71 283.79 226.43 C 283.66 225.64 283.56 224.85 283.46 224.06 Z"/>
<path fill="#fafafa" opacity="1.00" d=" M 229.11 237.38 C 233.10 233.91 238.65 233.54 243.65 232.74 C 241.73 234.98 238.46 234.63 236.11 236.19 C 239.39 236.35 242.68 236.11 245.94 235.72 C 251.40 235.99 256.87 237.78 261.28 241.06 C 261.54 247.61 262.52 254.82 267.15 259.82 C 272.31 264.72 279.88 263.86 286.31 265.47 C 288.98 266.33 291.27 264.57 293.24 263.01 C 297.04 265.82 301.24 269.05 302.65 273.75 C 299.77 273.54 296.88 273.30 294.01 272.99 C 288.77 272.47 284.47 269.12 279.61 267.44 C 275.13 265.82 270.60 264.13 266.78 261.21 C 262.25 257.75 257.46 254.61 253.26 250.73 C 249.20 246.89 244.36 243.81 239.09 241.92 C 234.62 240.86 229.96 240.78 225.39 240.83 C 229.50 242.79 234.52 241.50 238.85 243.09 C 244.04 245.18 248.99 248.06 252.97 252.03 C 256.84 255.84 261.79 258.32 265.49 262.29 C 258.90 260.54 252.94 257.10 246.78 254.28 C 238.34 250.69 231.39 244.21 222.45 241.69 C 223.13 240.96 223.81 240.22 224.48 239.47 C 228.17 239.09 231.93 238.62 235.32 236.99 C 233.25 237.15 231.18 237.34 229.11 237.38 Z"/>
<path fill="#fafafa" opacity="1.00" d=" M 179.85 321.28 C 185.06 317.91 190.89 315.76 196.55 313.30 C 197.42 313.35 199.16 313.44 200.03 313.49 C 203.78 317.60 204.84 323.56 203.83 328.92 C 203.05 334.10 202.52 339.87 205.29 344.58 C 204.34 338.32 203.88 331.98 205.28 325.74 C 207.77 328.53 209.15 332.06 210.67 335.42 C 212.44 339.61 213.57 344.78 210.93 348.87 C 209.12 350.57 206.68 351.42 204.53 352.62 C 204.69 349.93 205.13 347.28 205.39 344.61 C 204.96 344.87 204.09 345.40 203.65 345.66 C 202.78 349.98 202.87 354.73 199.94 358.35 C 199.19 356.97 198.45 355.57 198.00 354.06 C 196.68 348.99 194.99 344.01 192.78 339.27 C 190.77 334.92 187.62 331.22 185.73 326.81 C 189.93 328.38 193.47 331.25 196.54 334.45 C 199.60 337.62 200.43 342.17 203.08 345.61 C 203.47 339.64 200.65 334.16 198.11 328.95 C 195.79 324.77 193.76 319.82 189.15 317.68 C 192.66 322.56 196.47 327.41 198.19 333.28 C 195.13 331.22 192.50 328.58 189.32 326.70 C 186.20 324.81 182.76 323.49 179.85 321.28 Z"/>
<path fill="#fafafa" opacity="1.00" d=" M 157.86 340.07 C 159.92 340.62 161.95 341.30 163.90 342.16 C 168.65 345.38 174.20 347.08 179.25 349.75 C 183.81 352.18 188.87 353.70 193.04 356.84 C 191.23 356.78 189.43 356.79 187.63 356.81 C 181.99 354.97 176.48 352.85 171.21 350.10 C 173.87 354.25 179.12 354.86 183.21 356.91 C 182.36 357.02 180.65 357.24 179.80 357.35 C 172.48 355.76 164.69 358.64 157.73 355.27 C 159.41 351.74 160.91 348.13 162.73 344.66 C 165.51 346.65 168.16 348.89 171.32 350.28 C 167.44 346.15 162.32 343.51 157.86 340.07 Z"/>
<path fill="#fafafa" opacity="1.00" d=" M 223.08 356.23 C 228.27 353.04 234.57 351.48 240.50 353.48 C 244.83 354.24 245.59 359.91 244.02 363.28 C 240.01 363.90 236.37 360.99 232.28 361.83 C 229.74 359.09 226.09 358.13 223.08 356.23 Z"/>
<path fill="#fafafa" opacity="1.00" d=" M 241.24 364.94 C 242.64 364.58 244.04 364.23 245.45 363.90 C 245.51 366.44 243.48 368.21 242.31 370.27 C 240.99 371.91 241.52 374.14 241.29 376.08 C 239.18 375.76 237.01 375.48 235.16 374.35 C 238.04 372.02 242.24 369.25 241.24 364.94 Z"/>
<path fill="#fafafa" opacity="1.00" d=" M 280.01 368.98 C 286.38 371.35 291.76 375.83 298.35 377.62 C 300.09 378.54 301.66 379.75 303.21 380.97 C 293.61 383.27 284.86 376.70 280.01 368.98 Z"/>
</g>
<g id="#7f7f7fff">
<path fill="#7f7f7f" opacity="1.00" d=" M 147.07 110.24 C 147.61 110.15 148.67 109.99 149.20 109.90 C 153.08 116.01 152.85 123.63 155.96 130.08 C 155.48 124.27 153.46 118.61 153.62 112.75 C 153.91 112.57 154.50 112.22 154.79 112.05 C 155.46 117.42 156.27 122.77 157.58 128.03 C 157.54 124.25 159.35 120.07 157.17 116.61 C 157.64 116.55 158.57 116.42 159.03 116.36 C 159.41 114.12 159.76 111.85 160.73 109.78 C 161.32 113.90 161.08 118.09 160.52 122.21 C 160.12 121.96 159.32 121.48 158.91 121.24 C 158.84 124.23 158.87 127.22 158.90 130.21 C 158.42 130.30 157.47 130.48 157.00 130.57 C 157.65 133.35 158.23 136.15 158.99 138.91 C 158.21 138.79 157.44 138.68 156.66 138.57 C 156.18 137.76 155.69 136.95 155.23 136.12 C 154.79 134.73 154.56 133.25 153.83 131.98 C 153.26 131.01 152.54 130.15 151.82 129.30 C 151.77 130.96 151.62 132.61 151.10 134.20 C 148.28 132.10 146.06 129.36 143.62 126.86 C 144.23 126.40 144.83 125.95 145.44 125.49 C 146.77 127.28 148.23 128.97 149.93 130.41 C 148.44 124.81 142.80 121.88 140.79 116.68 C 145.57 119.64 148.55 124.66 151.86 129.08 C 150.55 122.72 148.39 116.58 147.07 110.24 Z"/>
<path fill="#7f7f7f" opacity="1.00" d=" M 226.23 219.14 C 226.69 219.34 227.61 219.76 228.07 219.97 C 225.04 225.00 220.42 228.67 216.84 233.24 C 216.66 232.66 216.31 231.51 216.14 230.93 C 216.94 228.31 218.66 226.14 220.87 224.56 C 223.07 223.20 224.57 221.06 226.23 219.14 Z"/>
</g>
<g id="#2c2c2cff">
<path fill="#2c2c2c" opacity="1.00" d=" M 160.09 129.31 C 162.29 124.57 164.83 120.02 167.57 115.57 C 168.19 119.89 163.45 122.88 162.88 127.14 C 166.21 124.25 168.51 120.43 171.48 117.22 L 172.47 117.44 C 169.71 121.94 165.72 125.49 162.91 129.94 C 160.48 133.59 161.00 138.14 160.47 142.29 C 159.93 141.18 159.42 140.06 158.99 138.91 C 158.23 136.15 157.65 133.35 157.00 130.57 C 157.47 130.48 158.42 130.30 158.90 130.21 C 158.87 127.22 158.84 124.23 158.91 121.24 C 159.32 121.48 160.12 121.96 160.52 122.21 C 160.28 124.57 160.10 126.94 160.09 129.31 Z"/>
<path fill="#2c2c2c" opacity="1.00" d=" M 268.15 135.27 C 269.44 133.54 270.69 131.78 272.03 130.09 C 270.96 134.08 268.34 137.35 266.66 141.06 C 266.41 140.69 265.93 139.93 265.69 139.55 C 266.19 136.96 266.77 134.37 267.55 131.84 C 267.70 132.70 268.00 134.41 268.15 135.27 Z"/>
</g>
<g id="#a2a2a2ff">
<path fill="#a2a2a2" opacity="1.00" d=" M 254.78 123.85 C 257.15 126.16 258.39 129.27 259.71 132.24 C 259.58 133.46 259.42 134.67 259.35 135.90 C 258.72 135.63 257.45 135.09 256.82 134.82 C 257.33 136.48 257.85 138.14 258.39 139.80 C 257.46 139.42 256.54 139.06 255.61 138.70 C 255.46 135.74 255.25 132.76 254.00 130.02 C 255.04 130.64 256.08 131.27 257.12 131.89 C 256.06 129.30 255.07 126.65 254.78 123.85 Z"/>
</g>
<g id="#f9f9f9ff">
<path fill="#f9f9f9" opacity="1.00" d=" M 114.03 129.78 C 118.27 129.80 120.27 133.90 121.36 137.39 C 117.63 136.54 115.94 132.68 114.03 129.78 Z"/>
<path fill="#f9f9f9" opacity="1.00" d=" M 314.77 134.80 C 315.10 134.61 315.77 134.22 316.10 134.03 C 315.51 137.68 314.11 141.28 311.82 144.20 C 312.69 141.03 313.79 137.93 314.77 134.80 Z"/>
<path fill="#f9f9f9" opacity="1.00" d=" M 227.13 167.80 C 234.33 171.15 237.43 179.81 237.12 187.34 C 234.97 184.33 233.81 180.54 230.82 178.18 C 228.87 176.77 226.31 177.47 224.09 177.11 C 221.77 176.06 219.79 174.42 217.72 172.97 C 220.17 172.28 222.84 170.41 225.38 171.65 C 227.19 172.40 229.09 172.93 231.06 172.97 C 229.41 171.58 227.23 171.17 225.39 170.14 C 225.82 169.55 226.69 168.38 227.13 167.80 Z"/>
<path fill="#f9f9f9" opacity="1.00" d=" M 235.95 229.90 C 240.98 225.31 244.66 219.60 248.53 214.06 C 249.54 216.52 250.50 219.01 251.74 221.38 C 253.29 223.67 255.95 224.88 257.73 226.99 C 255.49 227.11 253.26 227.09 251.03 227.06 C 245.86 227.05 240.95 228.85 235.95 229.90 Z"/>
<path fill="#f9f9f9" opacity="1.00" d=" M 266.20 256.71 C 261.74 248.70 260.90 237.85 267.16 230.52 C 267.31 235.46 264.02 241.70 268.34 245.62 C 271.99 249.13 269.77 254.82 272.10 258.87 C 273.87 261.92 278.57 260.27 280.24 263.09 C 275.07 262.91 269.01 261.51 266.20 256.71 Z"/>
<path fill="#f9f9f9" opacity="1.00" d=" M 228.10 232.43 C 228.49 232.35 229.27 232.18 229.66 232.10 L 230.12 232.94 C 225.65 234.44 221.98 238.48 217.07 238.25 C 218.68 233.72 224.10 233.40 228.10 232.43 Z"/>
<path fill="#f9f9f9" opacity="1.00" d=" M 173.77 311.84 C 177.64 312.48 178.46 316.89 178.66 320.16 C 175.40 318.64 173.37 315.50 173.77 311.84 Z"/>
<path fill="#f9f9f9" opacity="1.00" d=" M 245.35 356.20 C 248.46 356.68 250.02 360.10 251.56 362.54 C 255.06 368.25 248.20 377.49 241.87 374.03 C 242.95 370.95 245.19 368.49 246.44 365.51 C 246.90 362.37 245.70 359.29 245.35 356.20 Z"/>
<path fill="#f9f9f9" opacity="1.00" d=" M 232.35 362.53 C 234.14 362.59 236.08 362.33 237.75 363.17 C 238.98 364.17 239.62 365.68 240.52 366.96 C 239.68 368.57 238.08 370.19 236.13 369.13 C 234.00 367.62 233.02 364.95 232.35 362.53 Z"/>
</g>
<g id="#151515ff">
<path fill="#151515" opacity="1.00" d=" M 152.48 134.87 C 152.85 133.87 153.30 132.90 153.83 131.98 C 154.56 133.25 154.79 134.73 155.23 136.12 C 155.02 136.34 154.59 136.77 154.38 136.99 C 153.90 136.46 152.96 135.40 152.48 134.87 Z"/>
</g>
<g id="#7b7b7bff">
<path fill="#7b7b7b" opacity="1.00" d=" M 256.82 134.82 C 257.45 135.09 258.72 135.63 259.35 135.90 C 260.52 139.60 259.67 143.40 258.99 147.11 C 260.26 146.96 261.53 146.80 262.80 146.63 C 263.12 145.34 263.46 144.04 263.77 142.75 C 263.98 143.02 264.41 143.56 264.63 143.83 C 264.98 142.40 265.34 140.98 265.69 139.55 C 265.93 139.93 266.41 140.69 266.66 141.06 C 266.19 143.98 265.48 146.86 264.90 149.76 C 264.46 150.09 263.60 150.75 263.16 151.08 C 262.67 150.15 262.17 149.22 261.69 148.29 C 260.74 150.05 259.74 151.77 258.69 153.47 C 257.63 151.56 256.90 149.50 256.48 147.36 C 256.68 147.01 257.08 146.30 257.28 145.95 C 258.05 143.44 256.07 141.10 255.61 138.70 C 256.54 139.06 257.46 139.42 258.39 139.80 C 257.85 138.14 257.33 136.48 256.82 134.82 Z"/>
</g>
<g id="#d2d2d2ff">
<path fill="#d2d2d2" opacity="1.00" d=" M 121.36 137.39 C 121.91 137.87 121.91 137.87 121.36 137.39 Z"/>
</g>
<g id="#d6d6d6ff">
<path fill="#d6d6d6" opacity="1.00" d=" M 128.36 139.20 C 129.61 138.36 132.49 139.19 132.50 140.78 C 131.25 141.18 128.34 140.82 128.36 139.20 Z"/>
</g>
<g id="#939393ff">
<path fill="#939393" opacity="1.00" d=" M 159.11 149.87 C 159.57 148.91 160.05 147.96 160.52 147.01 C 163.12 147.89 165.70 148.83 168.26 149.84 C 165.38 151.80 162.16 150.66 159.11 149.87 Z"/>
</g>
<g id="#b0b0b0ff">
<path fill="#b0b0b0" opacity="1.00" d=" M 263.16 151.08 C 263.60 150.75 264.46 150.09 264.90 149.76 L 265.58 150.13 C 265.87 150.25 266.45 150.49 266.74 150.61 C 266.21 152.10 265.64 153.58 265.05 155.04 C 263.94 154.54 262.82 154.08 261.70 153.61 C 261.53 153.45 261.19 153.14 261.02 152.98 C 261.72 152.33 262.44 151.70 263.16 151.08 Z"/>
</g>
<g id="#434343ff">
<path fill="#434343" opacity="1.00" d=" M 195.67 165.90 C 196.84 162.30 196.88 157.77 200.45 155.55 C 198.44 159.30 197.37 163.43 196.65 167.60 C 194.66 168.67 192.74 169.89 190.97 171.31 C 194.46 178.09 196.03 185.69 199.51 192.51 C 199.44 194.43 199.39 196.35 199.28 198.28 C 196.25 194.60 195.55 189.87 194.03 185.51 C 192.30 185.61 190.57 185.71 188.84 185.73 C 189.67 184.08 191.74 184.59 193.23 184.20 C 192.39 181.11 191.27 178.10 189.93 175.20 C 189.21 174.51 188.42 173.66 187.33 173.80 C 186.08 174.29 184.83 174.78 183.58 175.27 C 184.03 173.81 184.51 172.36 184.99 170.91 C 183.82 168.43 182.78 165.90 181.53 163.46 C 179.67 161.81 176.97 161.16 175.65 158.93 C 180.30 160.50 184.48 163.33 187.70 167.04 C 187.61 168.39 187.54 169.75 187.52 171.11 C 189.62 169.53 188.47 166.34 188.96 164.07 C 190.17 164.60 191.39 165.12 192.62 165.61 C 193.60 165.91 194.62 166.00 195.67 165.90 M 190.36 168.14 C 190.92 168.70 190.92 168.70 190.36 168.14 Z"/>
<path fill="#434343" opacity="1.00" d=" M 208.32 229.34 L 209.07 229.49 C 209.11 230.06 209.18 231.19 209.22 231.75 C 197.38 231.90 185.31 235.22 173.61 232.22 L 174.55 231.69 C 185.82 232.34 197.34 232.20 208.32 229.34 Z"/>
<path fill="#434343" opacity="1.00" d=" M 216.14 230.93 C 216.31 231.51 216.66 232.66 216.84 233.24 C 216.93 233.63 217.10 234.41 217.19 234.80 C 220.34 233.14 223.58 231.56 227.12 230.97 C 227.36 231.34 227.85 232.07 228.10 232.43 C 224.10 233.40 218.68 233.72 217.07 238.25 C 216.90 238.26 216.56 238.26 216.39 238.27 C 216.15 237.52 215.91 236.77 215.68 236.03 C 215.22 235.85 214.28 235.51 213.81 235.34 C 214.03 234.28 214.25 233.23 214.51 232.19 C 215.27 232.05 215.81 231.63 216.14 230.93 Z"/>
<path fill="#434343" opacity="1.00" d=" M 171.21 350.10 C 176.48 352.85 181.99 354.97 187.63 356.81 C 185.11 357.80 182.43 357.90 179.80 357.35 C 180.65 357.24 182.36 357.02 183.21 356.91 C 179.12 354.86 173.87 354.25 171.21 350.10 Z"/>
<path fill="#434343" opacity="1.00" d=" M 293.26 359.04 C 296.24 357.54 293.40 362.39 293.26 359.04 Z"/>
</g>
<g id="#848484ff">
<path fill="#848484" opacity="1.00" d=" M 187.70 167.04 C 187.91 163.85 187.49 160.66 187.67 157.47 C 188.59 160.59 190.52 163.18 192.62 165.61 C 191.39 165.12 190.17 164.60 188.96 164.07 C 188.47 166.34 189.62 169.53 187.52 171.11 C 187.54 169.75 187.61 168.39 187.70 167.04 Z"/>
</g>
<g id="#cacacaff">
<path fill="#cacaca" opacity="1.00" d=" M 190.36 168.14 C 190.92 168.70 190.92 168.70 190.36 168.14 Z"/>
</g>
<g id="#6b6b6bff">
<path fill="#6b6b6b" opacity="1.00" d=" M 177.20 169.87 C 181.27 174.66 183.95 180.39 187.53 185.52 C 192.64 193.04 197.05 201.01 200.93 209.23 C 203.99 215.76 208.54 221.56 210.87 228.43 C 209.03 227.23 207.16 226.02 205.03 225.41 C 203.71 225.10 202.55 224.40 201.49 223.58 C 195.61 219.23 188.85 216.22 181.83 214.23 C 164.41 207.52 145.20 208.35 127.06 211.16 C 121.29 211.98 115.45 212.53 109.79 213.97 C 106.52 214.74 103.53 216.47 100.17 216.92 C 100.33 216.40 100.63 215.35 100.78 214.83 C 113.90 209.30 126.50 201.89 140.75 199.65 C 158.10 196.86 176.71 194.33 193.33 201.71 C 191.27 197.49 188.47 193.70 186.03 189.71 C 185.83 189.39 185.44 188.76 185.25 188.44 C 183.25 184.55 180.97 180.81 178.92 176.95 C 178.24 174.61 177.80 172.22 177.20 169.87 M 157.92 198.98 L 158.29 199.71 C 162.89 201.65 168.36 202.19 171.98 205.94 C 164.03 203.91 156.48 198.76 147.95 200.10 C 139.33 201.33 130.69 203.14 122.73 206.77 C 119.97 208.08 116.80 208.80 114.59 211.02 C 118.95 210.89 123.22 209.95 127.55 209.45 C 145.67 206.87 164.87 205.88 182.24 212.68 C 190.53 214.90 198.18 219.01 205.13 223.97 C 201.82 217.39 199.02 210.34 194.60 204.43 C 183.51 198.40 170.25 197.62 157.92 198.98 Z"/>
</g>
<g id="#757575ff">
<path fill="#757575" opacity="1.00" d=" M 289.80 173.74 C 292.59 172.73 295.31 169.45 298.45 171.46 C 302.07 172.73 303.12 176.73 303.77 180.09 C 303.97 181.51 303.29 182.91 301.97 183.52 C 302.25 179.04 301.10 173.38 296.02 172.18 C 294.17 173.27 292.42 174.55 290.46 175.43 C 287.34 176.51 284.71 172.74 281.70 173.68 C 279.78 177.77 279.28 182.53 276.23 186.13 C 277.04 189.44 277.93 193.05 276.23 196.27 C 274.00 201.04 273.86 206.41 275.16 211.45 C 273.51 210.61 272.90 208.69 272.69 206.98 C 272.34 202.84 273.08 198.65 274.90 194.91 C 276.52 192.09 274.80 189.06 274.46 186.15 C 275.30 183.61 277.31 181.60 278.11 179.01 C 272.03 183.22 269.26 190.81 269.27 197.98 C 270.15 206.29 274.21 214.04 280.05 219.96 C 282.73 217.36 284.93 214.33 287.05 211.27 C 287.36 211.69 287.98 212.52 288.30 212.93 C 290.70 211.30 292.57 208.96 295.19 207.66 C 293.14 211.98 288.41 214.33 286.19 218.62 C 286.64 219.03 287.55 219.87 288.00 220.28 C 286.51 221.32 284.92 222.18 283.39 223.14 C 283.40 223.37 283.44 223.83 283.46 224.06 C 283.56 224.85 283.66 225.64 283.79 226.43 C 283.23 226.73 282.69 227.05 282.16 227.39 C 281.48 227.05 280.78 226.75 280.07 226.50 C 280.04 225.85 279.99 224.56 279.96 223.91 C 279.56 224.35 278.75 225.22 278.35 225.66 C 278.14 225.46 277.71 225.07 277.50 224.88 C 277.90 223.66 278.47 222.47 278.62 221.18 C 276.59 217.99 273.75 215.38 271.95 212.04 C 269.35 206.75 267.10 200.98 267.72 194.97 C 268.37 189.10 270.77 183.24 275.14 179.17 C 277.40 177.00 278.52 173.83 281.11 171.99 C 284.23 171.16 286.80 173.83 289.80 173.74 M 281.33 221.16 C 281.88 221.71 281.88 221.71 281.33 221.16 Z"/>
</g>
<g id="#060606ff">
<path fill="#060606" opacity="1.00" d=" M 187.33 173.80 C 188.42 173.66 189.21 174.51 189.93 175.20 C 187.04 175.46 187.29 179.00 186.09 181.00 C 186.32 178.57 186.84 176.18 187.33 173.80 Z"/>
<path fill="#060606" opacity="1.00" d=" M 287.69 350.11 C 289.25 349.82 290.81 349.53 292.34 349.10 C 294.26 350.77 296.81 350.89 299.24 351.03 C 299.71 351.14 300.66 351.34 301.13 351.45 C 297.77 351.97 294.40 352.45 291.03 352.82 C 290.03 352.61 289.03 352.42 288.03 352.26 C 287.60 352.17 286.76 351.98 286.33 351.89 C 286.17 351.54 285.84 350.85 285.67 350.50 C 286.18 350.41 287.19 350.21 287.69 350.11 Z"/>
</g>
<g id="#222222ff">
<path fill="#222222" opacity="1.00" d=" M 301.11 183.81 C 304.29 185.78 306.18 189.15 307.76 192.43 C 311.90 192.16 316.15 191.95 320.23 192.88 C 325.47 195.28 328.91 200.20 332.65 204.38 C 333.94 206.10 336.04 207.67 335.80 210.07 C 336.24 213.49 333.78 216.15 332.48 219.06 C 332.20 220.88 332.41 222.73 332.44 224.57 C 330.77 226.94 327.87 227.62 325.42 228.85 C 329.65 230.39 332.39 234.40 332.55 238.86 C 331.94 242.92 328.35 245.58 324.83 247.14 C 326.39 244.23 330.05 243.10 331.21 239.90 C 331.85 237.33 330.45 234.85 329.34 232.63 C 326.80 230.88 323.85 228.71 320.60 229.42 C 313.01 230.41 305.40 228.88 298.22 226.54 C 297.15 226.04 296.20 225.22 295.02 225.06 C 291.71 225.11 288.46 225.98 285.64 227.71 C 287.91 227.70 290.45 227.16 292.32 228.85 C 289.91 229.16 287.47 229.00 285.05 229.14 C 284.94 229.53 284.71 230.32 284.59 230.71 L 285.58 230.82 C 288.01 231.25 290.50 231.27 292.95 231.55 C 295.55 232.50 298.16 233.48 300.95 233.73 C 295.95 235.34 290.95 231.92 285.82 232.51 C 287.69 238.20 290.36 244.12 295.30 247.79 C 299.29 250.11 303.73 251.64 308.16 252.90 C 310.75 253.79 313.35 252.52 315.94 252.22 C 311.40 256.79 304.77 252.87 299.73 251.31 C 298.20 250.49 298.04 252.72 297.53 253.58 C 296.60 256.41 293.38 257.93 293.14 261.04 C 299.22 265.76 304.21 271.63 308.90 277.70 C 303.77 274.66 297.75 274.77 292.03 274.01 C 283.74 271.70 276.31 267.01 268.01 264.74 C 259.04 262.08 250.81 257.54 242.41 253.54 C 237.55 251.18 233.32 247.74 228.45 245.41 C 224.28 243.57 220.11 241.66 215.68 240.53 C 215.60 241.39 215.44 243.12 215.36 243.98 L 214.66 243.52 C 214.78 242.40 214.91 241.28 215.05 240.17 C 218.18 239.78 221.33 239.62 224.48 239.47 C 223.81 240.22 223.13 240.96 222.45 241.69 C 231.39 244.21 238.34 250.69 246.78 254.28 C 252.94 257.10 258.90 260.54 265.49 262.29 C 261.79 258.32 256.84 255.84 252.97 252.03 C 248.99 248.06 244.04 245.18 238.85 243.09 C 234.52 241.50 229.50 242.79 225.39 240.83 C 229.96 240.78 234.62 240.86 239.09 241.92 C 244.36 243.81 249.20 246.89 253.26 250.73 C 257.46 254.61 262.25 257.75 266.78 261.21 C 270.60 264.13 275.13 265.82 279.61 267.44 C 284.47 269.12 288.77 272.47 294.01 272.99 C 296.88 273.30 299.77 273.54 302.65 273.75 C 301.24 269.05 297.04 265.82 293.24 263.01 C 291.27 264.57 288.98 266.33 286.31 265.47 C 279.88 263.86 272.31 264.72 267.15 259.82 C 262.52 254.82 261.54 247.61 261.28 241.06 C 256.87 237.78 251.40 235.99 245.94 235.72 C 246.48 235.54 247.58 235.19 248.13 235.01 C 247.61 234.15 247.08 233.31 246.55 232.47 C 251.74 234.01 256.59 236.39 261.22 239.17 C 262.83 236.40 264.06 233.42 265.00 230.36 C 266.30 229.55 267.65 228.81 269.12 228.33 C 272.29 228.21 275.46 228.50 278.64 228.51 C 278.66 228.78 278.69 229.32 278.70 229.59 C 275.41 229.84 272.10 229.74 268.80 229.58 C 268.09 233.63 267.15 237.71 267.35 241.84 C 268.16 244.09 270.49 245.51 271.19 247.86 C 272.07 251.11 271.68 254.67 273.05 257.78 C 274.35 260.51 277.79 259.74 280.08 260.96 C 282.88 262.49 285.47 265.23 288.98 264.36 C 291.30 264.38 291.55 261.65 292.15 260.00 C 292.81 256.39 297.79 254.29 296.88 250.37 C 293.46 247.75 289.95 244.98 288.12 240.95 C 285.83 237.43 285.63 232.23 281.23 230.56 C 281.73 230.47 282.72 230.29 283.22 230.20 C 282.59 229.76 281.33 228.88 280.70 228.45 C 281.07 228.18 281.80 227.65 282.16 227.39 C 282.69 227.05 283.23 226.73 283.79 226.43 C 285.12 225.71 286.48 225.04 287.84 224.37 C 287.56 224.11 287.01 223.59 286.74 223.33 C 285.64 223.57 284.55 223.81 283.46 224.06 C 283.44 223.83 283.40 223.37 283.39 223.14 C 284.92 222.18 286.51 221.32 288.00 220.28 C 290.11 217.58 291.35 214.28 293.80 211.83 C 298.77 205.92 305.06 200.13 305.75 191.94 C 305.53 188.65 302.06 186.87 301.11 183.81 M 306.96 193.60 C 304.92 202.40 298.01 208.50 292.52 215.21 L 292.64 216.24 C 293.22 216.26 294.38 216.31 294.96 216.33 C 292.11 217.89 289.03 219.71 288.06 223.03 C 293.09 221.79 298.20 220.86 303.33 220.38 C 304.38 219.63 305.26 218.67 306.25 217.85 C 307.52 217.53 309.21 218.11 308.71 219.70 C 305.82 222.00 299.36 220.71 297.99 224.82 C 307.94 228.92 319.54 230.14 329.58 225.67 C 332.25 224.14 330.75 220.69 331.38 218.23 C 332.73 215.37 335.16 212.66 334.74 209.28 C 333.70 207.10 331.93 205.41 330.41 203.57 C 327.24 200.02 324.27 195.95 319.80 193.95 C 315.58 193.13 311.22 192.93 306.96 193.60 M 266.20 256.71 C 269.01 261.51 275.07 262.91 280.24 263.09 C 278.57 260.27 273.87 261.92 272.10 258.87 C 269.77 254.82 271.99 249.13 268.34 245.62 C 264.02 241.70 267.31 235.46 267.16 230.52 C 260.90 237.85 261.74 248.70 266.20 256.71 Z"/>
<path fill="#222222" opacity="1.00" d=" M 248.03 210.20 C 248.36 210.46 249.02 210.97 249.35 211.23 C 250.19 213.39 247.13 212.67 247.74 210.89 L 248.03 210.20 Z"/>
</g>
<g id="#0c0c0cff">
<path fill="#0c0c0c" opacity="1.00" d=" M 216.98 216.60 C 219.48 214.48 222.05 211.93 225.59 211.99 C 225.47 213.52 225.33 215.06 225.23 216.60 C 226.33 216.03 227.44 215.45 228.53 214.86 C 228.48 216.60 227.32 217.90 226.23 219.14 C 224.57 221.06 223.07 223.20 220.87 224.56 C 221.63 223.26 222.35 221.94 223.07 220.62 C 221.52 220.83 219.98 221.06 218.44 221.30 C 216.57 224.70 215.39 228.42 214.51 232.19 C 214.25 233.23 214.03 234.28 213.81 235.34 C 214.28 235.51 215.22 235.85 215.68 236.03 C 215.91 236.77 216.15 237.52 216.39 238.27 C 216.56 238.26 216.90 238.26 217.07 238.25 C 221.98 238.48 225.65 234.44 230.12 232.94 C 237.65 233.45 244.29 228.91 251.81 228.98 C 251.61 228.50 251.22 227.54 251.03 227.06 C 253.26 227.09 255.49 227.11 257.73 226.99 C 255.95 224.88 253.29 223.67 251.74 221.38 C 251.91 221.02 252.25 220.31 252.42 219.95 C 257.11 224.15 262.94 227.09 269.12 228.33 C 267.65 228.81 266.30 229.55 265.00 230.36 C 258.51 229.62 252.04 229.82 245.61 231.03 C 244.93 231.58 244.28 232.15 243.65 232.74 C 238.65 233.54 233.10 233.91 229.11 237.38 C 231.18 237.34 233.25 237.15 235.32 236.99 C 231.93 238.62 228.17 239.09 224.48 239.47 C 221.33 239.62 218.18 239.78 215.05 240.17 C 214.91 241.28 214.78 242.40 214.66 243.52 C 214.46 246.17 212.83 248.38 211.61 250.65 C 209.76 253.58 208.88 256.96 207.83 260.23 C 207.13 258.69 206.44 257.15 205.74 255.63 C 206.79 250.88 208.05 246.16 209.15 241.44 C 208.69 238.20 209.28 234.98 209.22 231.75 C 209.18 231.19 209.11 230.06 209.07 229.49 L 208.32 229.34 C 203.35 227.88 198.32 226.63 193.22 225.75 C 184.55 224.67 175.73 226.23 167.09 224.77 C 161.42 224.05 157.28 219.20 151.51 218.85 C 154.29 222.27 157.61 225.24 161.13 227.89 C 164.96 230.79 169.98 230.95 174.55 231.69 L 173.61 232.22 C 166.23 233.04 159.33 228.84 154.52 223.49 C 152.47 220.92 149.45 219.68 146.45 218.62 C 146.34 218.26 146.14 217.52 146.04 217.15 C 149.24 217.20 152.46 217.61 155.53 218.55 C 159.52 220.11 162.97 222.99 167.29 223.69 C 176.18 225.38 185.30 223.44 194.23 224.81 C 198.16 225.45 202.01 226.54 205.89 227.43 C 205.67 226.92 205.24 225.92 205.03 225.41 C 207.16 226.02 209.03 227.23 210.87 228.43 C 211.55 229.15 212.26 230.36 213.25 229.25 C 214.31 226.56 215.30 223.53 214.39 220.66 C 213.01 218.68 210.85 217.44 209.07 215.86 C 210.00 214.91 210.93 213.96 211.87 213.00 C 213.51 214.28 215.26 215.42 216.98 216.60 M 211.15 232.28 C 209.83 233.14 211.12 235.61 212.50 234.47 C 213.85 233.61 212.55 231.11 211.15 232.28 M 211.29 245.31 C 210.02 245.74 209.47 247.63 210.26 248.70 C 212.01 249.55 213.13 245.65 211.29 245.31 Z"/>
<path fill="#0c0c0c" opacity="1.00" d=" M 205.14 284.99 C 206.68 286.74 207.96 288.81 210.08 289.93 C 214.98 292.77 219.99 295.87 223.18 300.69 C 229.62 312.27 228.60 327.04 222.45 338.53 C 220.35 342.53 216.64 345.21 213.61 348.43 C 216.50 348.05 219.24 347.00 222.03 346.20 C 237.29 342.01 253.75 341.90 268.95 346.37 C 269.52 347.22 270.11 348.08 270.69 348.93 C 270.34 349.21 269.65 349.76 269.30 350.04 C 265.44 348.45 261.88 345.95 257.62 345.53 C 247.18 344.55 236.54 345.19 226.49 348.34 C 220.12 350.32 213.33 351.49 207.64 355.16 L 207.42 356.29 C 211.54 356.33 215.67 356.44 219.78 356.77 C 223.39 355.22 226.57 352.61 230.49 351.83 C 236.14 351.01 242.13 351.99 246.97 355.09 C 251.49 358.64 255.46 364.90 252.54 370.65 C 250.90 374.91 246.05 376.11 242.03 376.88 C 237.73 378.03 233.97 374.15 229.71 375.45 C 225.05 376.56 220.75 373.21 218.74 369.25 C 216.78 366.16 217.60 362.36 217.37 358.91 C 211.24 357.45 204.57 357.79 198.70 360.13 C 196.58 360.96 194.25 360.60 192.04 360.53 C 182.78 359.68 173.42 360.85 164.19 359.49 C 161.49 358.95 158.89 358.02 156.17 357.60 C 151.32 365.31 146.84 373.26 141.98 380.93 C 136.41 385.78 131.48 391.58 128.62 398.45 C 127.24 401.72 125.18 404.64 123.56 407.79 C 122.25 410.88 120.57 413.76 118.29 416.24 C 116.67 419.15 114.66 421.79 112.18 424.03 C 112.44 422.16 112.47 420.26 112.75 418.40 C 115.89 411.87 119.90 405.81 123.47 399.51 C 133.65 379.48 148.39 362.18 158.46 342.09 C 155.88 339.98 152.51 339.23 149.95 337.14 C 154.10 336.76 158.03 338.38 162.00 339.27 C 162.63 340.23 163.25 341.20 163.90 342.16 C 161.95 341.30 159.92 340.62 157.86 340.07 C 162.32 343.51 167.44 346.15 171.32 350.28 C 168.16 348.89 165.51 346.65 162.73 344.66 C 160.91 348.13 159.41 351.74 157.73 355.27 C 164.69 358.64 172.48 355.76 179.80 357.35 C 182.43 357.90 185.11 357.80 187.63 356.81 C 189.43 356.79 191.23 356.78 193.04 356.84 C 193.88 357.31 194.72 357.79 195.56 358.27 C 195.21 357.65 194.86 357.03 194.51 356.42 C 195.79 355.82 196.96 355.02 198.00 354.06 C 198.45 355.57 199.19 356.97 199.94 358.35 C 202.87 354.73 202.78 349.98 203.65 345.66 C 204.09 345.40 204.96 344.87 205.39 344.61 C 205.13 347.28 204.69 349.93 204.53 352.62 C 206.68 351.42 209.12 350.57 210.93 348.87 C 213.57 344.78 212.44 339.61 210.67 335.42 C 209.15 332.06 207.77 328.53 205.28 325.74 C 203.88 331.98 204.34 338.32 205.29 344.58 C 202.52 339.87 203.05 334.10 203.83 328.92 C 204.84 323.56 203.78 317.60 200.03 313.49 C 199.16 313.44 197.42 313.35 196.55 313.30 C 197.43 312.77 198.34 312.28 199.26 311.82 L 200.26 311.52 C 200.35 308.70 199.93 305.71 201.14 303.07 C 202.61 299.52 205.28 296.42 205.72 292.49 C 206.27 289.98 205.52 287.47 205.14 284.99 M 206.32 294.56 C 205.41 298.34 202.73 301.35 201.67 305.06 C 201.19 307.60 201.07 310.24 201.31 312.82 C 203.43 315.75 204.65 319.12 205.40 322.63 C 209.07 330.12 214.37 337.49 213.67 346.27 C 221.19 341.84 224.39 333.03 225.95 324.88 C 227.08 317.02 226.48 308.63 222.39 301.65 C 219.29 297.05 214.72 293.20 209.49 291.40 C 210.48 294.20 212.34 296.54 213.80 299.10 C 216.69 303.86 218.41 309.36 218.57 314.93 C 218.96 322.81 219.16 330.84 217.40 338.58 C 217.02 340.23 216.48 341.94 215.22 343.15 C 218.58 332.51 218.64 321.14 217.19 310.16 C 216.05 304.05 212.78 298.70 209.36 293.62 C 208.44 292.56 208.50 291.12 208.29 289.82 C 206.78 290.89 206.95 292.99 206.32 294.56 M 223.08 356.23 C 226.09 358.13 229.74 359.09 232.28 361.83 C 236.37 360.99 240.01 363.90 244.02 363.28 C 245.59 359.91 244.83 354.24 240.50 353.48 C 234.57 351.48 228.27 353.04 223.08 356.23 M 245.35 356.20 C 245.70 359.29 246.90 362.37 246.44 365.51 C 245.19 368.49 242.95 370.95 241.87 374.03 C 248.20 377.49 255.06 368.25 251.56 362.54 C 250.02 360.10 248.46 356.68 245.35 356.20 M 218.46 361.97 C 217.77 366.91 220.80 371.84 225.13 374.10 C 229.53 375.31 234.00 373.36 237.73 371.12 C 236.05 369.96 233.68 369.32 232.97 367.20 C 231.82 365.01 231.26 362.37 229.29 360.73 C 226.99 359.00 224.10 357.89 221.20 358.15 C 219.40 358.38 218.43 360.31 218.46 361.97 M 232.35 362.53 C 233.02 364.95 234.00 367.62 236.13 369.13 C 238.08 370.19 239.68 368.57 240.52 366.96 C 239.62 365.68 238.98 364.17 237.75 363.17 C 236.08 362.33 234.14 362.59 232.35 362.53 M 241.24 364.94 C 242.24 369.25 238.04 372.02 235.16 374.35 C 237.01 375.48 239.18 375.76 241.29 376.08 C 241.52 374.14 240.99 371.91 242.31 370.27 C 243.48 368.21 245.51 366.44 245.45 363.90 C 244.04 364.23 242.64 364.58 241.24 364.94 Z"/>
</g>
<g id="#f7f7f7ff">
<path fill="#f7f7f7" opacity="1.00" d=" M 218.44 221.30 C 219.98 221.06 221.52 220.83 223.07 220.62 C 222.35 221.94 221.63 223.26 220.87 224.56 C 218.66 226.14 216.94 228.31 216.14 230.93 C 215.81 231.63 215.27 232.05 214.51 232.19 C 215.39 228.42 216.57 224.70 218.44 221.30 Z"/>
<path fill="#f7f7f7" opacity="1.00" d=" M 179.88 305.91 C 182.90 300.07 186.28 294.40 189.97 288.95 C 188.04 293.89 184.75 298.12 182.46 302.88 C 181.60 303.89 180.73 304.88 179.88 305.91 Z"/>
<path fill="#f7f7f7" opacity="1.00" d=" M 176.90 311.06 C 177.28 311.08 178.06 311.13 178.44 311.16 C 180.09 312.23 181.67 313.40 183.26 314.54 C 187.47 313.53 191.62 312.15 195.99 312.02 C 190.54 313.69 185.61 316.53 180.45 318.85 C 179.57 316.12 178.40 313.50 176.90 311.06 Z"/>
</g>
<g id="#f8f8f8ff">
<path fill="#f8f8f8" opacity="1.00" d=" M 281.33 221.16 C 281.88 221.71 281.88 221.71 281.33 221.16 Z"/>
</g>
<g id="#737373ff">
<path fill="#737373" opacity="1.00" d=" M 285.64 227.71 C 288.46 225.98 291.71 225.11 295.02 225.06 C 294.57 225.29 293.66 225.76 293.21 225.99 C 293.77 226.77 294.32 227.55 294.88 228.34 C 294.02 228.52 293.17 228.69 292.32 228.85 C 290.45 227.16 287.91 227.70 285.64 227.71 Z"/>
</g>
<g id="#a9a9a9ff">
<path fill="#a9a9a9" opacity="1.00" d=" M 295.02 225.06 C 296.20 225.22 297.15 226.04 298.22 226.54 C 298.03 227.07 297.66 228.15 297.48 228.69 C 298.59 229.15 300.85 228.42 300.97 230.12 C 295.86 230.94 290.34 228.26 285.58 230.82 L 284.59 230.71 C 284.71 230.32 284.94 229.53 285.05 229.14 C 287.47 229.00 289.91 229.16 292.32 228.85 C 293.17 228.69 294.02 228.52 294.88 228.34 C 294.32 227.55 293.77 226.77 293.21 225.99 C 293.66 225.76 294.57 225.29 295.02 225.06 Z"/>
</g>
<g id="#181818ff">
<path fill="#181818" opacity="1.00" d=" M 227.12 230.97 C 227.52 230.88 228.32 230.71 228.72 230.63 C 228.95 230.99 229.43 231.73 229.66 232.10 C 229.27 232.18 228.49 232.35 228.10 232.43 C 227.85 232.07 227.36 231.34 227.12 230.97 Z"/>
<path fill="#181818" opacity="1.00" d=" M 305.86 351.83 C 307.28 351.89 308.70 351.98 310.13 352.08 C 309.82 353.25 309.50 354.42 309.17 355.59 C 308.17 355.01 307.19 354.42 306.21 353.83 C 306.12 353.33 305.95 352.33 305.86 351.83 Z"/>
</g>
<g id="#8b8b8bff">
<path fill="#8b8b8b" opacity="1.00" d=" M 243.65 232.74 C 244.28 232.15 244.93 231.58 245.61 231.03 C 245.84 231.39 246.32 232.11 246.55 232.47 C 247.08 233.31 247.61 234.15 248.13 235.01 C 247.58 235.19 246.48 235.54 245.94 235.72 C 242.68 236.11 239.39 236.35 236.11 236.19 C 238.46 234.63 241.73 234.98 243.65 232.74 Z"/>
</g>
<g id="#666666ff">
<path fill="#666666" opacity="1.00" d=" M 211.15 232.28 C 212.55 231.11 213.85 233.61 212.50 234.47 C 211.12 235.61 209.83 233.14 211.15 232.28 Z"/>
</g>
<g id="#6c6c6cff">
<path fill="#6c6c6c" opacity="1.00" d=" M 211.29 245.31 C 213.13 245.65 212.01 249.55 210.26 248.70 C 209.47 247.63 210.02 245.74 211.29 245.31 Z"/>
</g>
<g id="#858585ff">
<path fill="#858585" opacity="1.00" d=" M 323.28 247.19 C 324.85 247.26 324.13 249.71 322.88 249.72 C 321.32 249.62 322.06 247.25 323.28 247.19 Z"/>
</g>
<g id="#6d6d6dff">
<path fill="#6d6d6d" opacity="1.00" d=" M 319.19 250.14 C 320.46 250.80 320.40 251.47 319.02 252.16 C 317.75 251.50 317.81 250.83 319.19 250.14 Z"/>
</g>
<g id="#676767ff">
<path fill="#676767" opacity="1.00" d=" M 182.46 302.88 C 184.35 301.99 186.26 301.14 188.08 300.12 C 186.48 303.93 185.06 308.47 181.20 310.58 C 181.88 311.37 182.56 312.16 183.24 312.97 C 188.40 311.79 194.16 308.98 199.26 311.82 C 198.34 312.28 197.43 312.77 196.55 313.30 C 190.89 315.76 185.06 317.91 179.85 321.28 C 182.76 323.49 186.20 324.81 189.32 326.70 C 192.50 328.58 195.13 331.22 198.19 333.28 C 196.47 327.41 192.66 322.56 189.15 317.68 C 193.76 319.82 195.79 324.77 198.11 328.95 C 200.65 334.16 203.47 339.64 203.08 345.61 C 200.43 342.17 199.60 337.62 196.54 334.45 C 193.47 331.25 189.93 328.38 185.73 326.81 C 187.62 331.22 190.77 334.92 192.78 339.27 C 194.99 344.01 196.68 348.99 198.00 354.06 C 196.96 355.02 195.79 355.82 194.51 356.42 C 194.86 357.03 195.21 357.65 195.56 358.27 C 194.72 357.79 193.88 357.31 193.04 356.84 C 188.87 353.70 183.81 352.18 179.25 349.75 C 174.20 347.08 168.65 345.38 163.90 342.16 C 163.25 341.20 162.63 340.23 162.00 339.27 C 166.95 339.35 171.90 340.39 176.34 342.64 C 183.14 345.53 188.19 351.20 194.41 355.03 C 195.96 355.40 196.02 353.80 195.01 353.08 C 191.13 347.99 187.79 342.39 182.94 338.12 C 179.23 334.79 175.97 330.63 171.14 328.87 C 163.47 325.92 155.14 325.69 147.04 325.13 C 139.99 324.68 132.88 325.54 125.85 324.65 L 126.41 323.67 C 137.74 323.68 149.13 323.15 160.40 324.58 C 165.69 325.25 171.07 326.50 175.59 329.43 C 183.28 335.08 189.32 342.53 195.01 350.09 C 193.23 342.17 188.88 335.20 184.48 328.50 C 182.77 325.92 180.39 323.90 177.89 322.12 C 174.77 319.87 172.04 316.91 168.31 315.66 C 164.77 314.54 161.05 314.10 157.45 313.20 L 158.17 312.44 C 162.89 311.91 167.73 313.70 172.17 315.32 C 172.15 313.60 172.14 311.88 172.15 310.17 C 172.56 310.26 173.37 310.43 173.78 310.52 C 174.81 310.73 175.85 310.91 176.90 311.06 C 178.40 313.50 179.57 316.12 180.45 318.85 C 185.61 316.53 190.54 313.69 195.99 312.02 C 191.62 312.15 187.47 313.53 183.26 314.54 C 181.67 313.40 180.09 312.23 178.44 311.16 L 179.09 310.52 C 180.11 309.26 179.87 308.72 178.37 308.91 C 178.83 307.88 179.34 306.89 179.88 305.91 C 180.73 304.88 181.60 303.89 182.46 302.88 M 173.77 311.84 C 173.37 315.50 175.40 318.64 178.66 320.16 C 178.46 316.89 177.64 312.48 173.77 311.84 M 164.84 341.03 C 167.63 343.24 171.16 344.14 174.32 345.68 C 178.34 347.42 182.11 349.72 186.26 351.14 C 180.41 345.76 172.82 341.82 164.84 341.03 Z"/>
</g>
<g id="#4f4f4fff">
<path fill="#4f4f4f" opacity="1.00" d=" M 298.69 308.71 C 299.90 308.01 301.32 308.13 302.65 308.10 C 302.19 311.09 302.14 314.11 302.50 317.11 C 303.02 320.30 301.03 323.06 299.97 325.91 C 303.25 323.19 306.17 319.76 310.30 318.31 C 313.33 317.40 316.65 317.39 319.67 318.34 C 320.06 319.65 320.46 320.98 320.83 322.31 C 323.63 323.63 327.00 325.51 327.04 329.05 C 325.51 337.72 320.48 346.02 312.40 350.00 C 315.76 352.00 318.73 355.51 323.01 355.09 C 326.50 355.10 330.21 357.05 331.63 360.34 C 332.21 363.18 330.07 365.83 327.30 366.34 C 328.50 368.84 329.98 371.80 328.45 374.51 C 325.85 378.92 322.38 383.88 316.63 383.69 C 315.55 387.62 310.87 387.17 307.79 386.17 C 306.05 385.63 305.15 383.89 303.99 382.63 C 299.61 382.74 294.93 383.30 290.95 381.03 C 283.49 377.11 278.27 370.08 274.01 363.01 C 271.48 359.00 272.96 353.35 269.30 350.04 C 269.65 349.76 270.34 349.21 270.69 348.93 C 270.11 348.08 269.52 347.22 268.95 346.37 C 269.57 346.11 270.81 345.61 271.44 345.36 C 273.82 340.64 273.54 334.95 276.19 330.28 C 278.09 325.74 282.39 323.07 285.35 319.32 C 289.02 314.94 293.65 311.38 298.69 308.71 M 287.28 319.31 C 284.37 323.04 280.22 325.73 278.00 329.98 C 275.46 334.50 274.73 339.72 273.65 344.71 C 275.97 344.41 278.35 343.78 280.68 344.29 C 282.80 345.30 284.45 347.00 286.22 348.50 C 288.39 347.21 289.53 344.86 290.71 342.74 C 294.38 334.73 290.43 324.94 295.42 317.39 C 297.10 314.66 300.15 312.89 301.03 309.67 C 295.50 311.17 291.16 315.29 287.28 319.31 M 294.14 332.15 C 294.95 331.30 295.87 330.51 296.48 329.50 C 298.72 324.53 302.46 319.63 300.89 313.86 C 294.57 317.60 293.63 325.49 294.14 332.15 M 303.09 325.10 C 300.14 328.18 296.79 330.94 294.38 334.47 C 293.32 337.09 293.36 340.00 292.82 342.75 C 294.55 342.48 296.29 342.23 298.05 342.15 C 295.81 343.93 292.23 343.63 290.67 346.24 C 296.56 345.24 302.02 342.10 308.09 342.16 C 301.78 345.88 293.44 345.36 287.69 350.11 C 287.19 350.21 286.18 350.41 285.67 350.50 C 284.17 348.32 282.14 346.28 279.60 345.40 C 276.79 345.18 273.94 346.20 271.70 347.88 C 273.29 352.95 273.20 358.50 275.73 363.28 C 276.86 365.45 278.95 366.86 281.12 367.86 C 285.09 369.72 288.91 371.95 293.14 373.20 C 292.68 371.52 292.24 369.84 291.74 368.18 C 291.25 365.37 287.60 364.64 286.98 361.91 C 286.62 358.58 286.86 355.21 286.33 351.89 C 286.76 351.98 287.60 352.17 288.03 352.26 C 287.50 353.43 287.88 354.27 289.17 354.76 C 288.89 355.00 288.35 355.46 288.07 355.69 C 288.51 360.65 294.81 360.79 298.15 363.09 C 294.44 363.22 291.38 361.05 288.05 359.81 C 287.99 362.60 290.74 363.86 292.35 365.67 C 293.34 367.49 293.27 369.76 294.50 371.48 C 300.57 373.17 307.31 368.29 307.92 362.04 C 306.09 359.35 303.20 357.04 300.11 355.89 C 298.86 355.08 295.52 355.68 295.96 353.65 C 298.62 353.95 301.28 354.32 303.89 354.93 L 303.98 356.03 C 305.63 357.85 307.47 359.48 309.33 361.10 C 309.06 363.32 308.64 365.56 307.69 367.61 C 305.14 371.12 300.96 372.81 297.08 374.39 C 299.98 377.41 303.73 379.77 307.93 380.40 C 307.27 381.27 306.60 382.14 305.95 383.02 C 307.63 384.91 310.25 385.75 312.68 384.82 C 313.05 383.45 313.50 382.10 314.01 380.78 C 316.08 381.26 318.30 382.51 320.40 381.47 C 323.21 380.02 325.03 377.29 326.74 374.73 C 328.39 372.51 328.20 368.80 325.71 367.27 C 321.11 367.03 315.58 367.95 312.07 364.24 C 317.32 365.40 323.30 367.26 328.32 364.40 C 330.46 363.57 331.07 360.28 329.00 359.02 C 326.59 356.32 322.85 356.76 319.63 356.33 C 316.70 355.10 314.43 352.66 311.41 351.61 C 309.63 351.29 307.82 351.32 306.04 351.12 C 306.12 350.72 306.28 349.92 306.35 349.51 C 308.79 348.95 311.41 348.93 313.64 347.69 C 320.11 343.54 324.34 336.47 325.61 328.97 C 325.28 325.76 322.07 324.21 319.29 323.56 C 319.05 322.15 318.82 320.74 318.58 319.34 C 312.64 317.70 307.05 320.91 303.09 325.10 M 280.01 368.98 C 284.86 376.70 293.61 383.27 303.21 380.97 C 301.66 379.75 300.09 378.54 298.35 377.62 C 291.76 375.83 286.38 371.35 280.01 368.98 Z"/>
</g>
<g id="#b1b1b1ff">
<path fill="#b1b1b1" opacity="1.00" d=" M 178.37 308.91 C 179.87 308.72 180.11 309.26 179.09 310.52 C 178.91 310.12 178.55 309.31 178.37 308.91 Z"/>
</g>
<g id="#090909ff">
<path fill="#090909" opacity="1.00" d=" M 138.01 313.99 C 143.98 310.63 151.92 308.77 158.17 312.44 L 157.45 313.20 C 153.12 312.50 148.61 311.95 144.33 313.26 C 139.12 314.48 134.61 317.43 129.89 319.80 C 127.30 321.15 124.29 321.43 121.77 322.92 C 123.31 323.23 124.86 323.47 126.41 323.67 C 123.63 325.22 120.60 323.43 117.72 323.13 C 117.53 322.71 117.15 321.85 116.96 321.42 C 124.63 321.57 131.69 317.98 138.01 313.99 Z"/>
</g>









<g id="#707070ff">
<path fill="#707070" opacity="1.00" d=" M 292.34 349.10 C 296.42 347.45 300.85 346.92 305.22 347.26 C 302.23 349.57 298.15 348.64 294.67 349.37 C 296.17 349.96 297.69 350.52 299.24 351.03 C 296.81 350.89 294.26 350.77 292.34 349.10 Z"/>
<path fill="#707070" opacity="1.00" d=" M 301.13 351.45 C 302.70 351.59 304.28 351.71 305.86 351.83 C 305.95 352.33 306.12 353.33 306.21 353.83 C 305.59 353.69 304.34 353.41 303.72 353.27 C 301.20 352.80 298.62 352.70 296.06 352.69 L 295.96 353.65 C 295.52 355.68 298.86 355.08 300.11 355.89 C 298.03 355.86 295.95 355.99 293.88 356.19 C 296.30 357.25 298.99 357.65 301.25 359.07 C 296.58 359.49 292.34 357.22 288.07 355.69 C 288.35 355.46 288.89 355.00 289.17 354.76 C 289.87 354.20 290.49 353.55 291.03 352.82 C 294.40 352.45 297.77 351.97 301.13 351.45 Z"/>
</g>


<g id="#a1a1a1ff">
<path fill="#a1a1a1" opacity="1.00" d=" M 303.72 353.27 C 304.34 353.41 305.59 353.69 306.21 353.83 C 307.19 354.42 308.17 355.01 309.17 355.59 C 307.44 355.73 305.70 355.87 303.98 356.03 L 303.89 354.93 C 303.85 354.51 303.76 353.68 303.72 353.27 Z"/>
</g>


<g id="#777777ff">
<path fill="#777777" opacity="1.00" d=" M 296.29 360.06 C 299.28 358.49 296.50 363.38 296.29 360.06 Z"/>
</g>









<g id="#7e7e7eff">
<path fill="#7e7e7e" opacity="1.00" d=" M 128.62 398.45 C 131.48 391.58 136.41 385.78 141.98 380.93 C 140.36 385.87 137.05 389.97 134.49 394.42 C 131.42 398.98 128.92 403.91 125.69 408.36 C 125.16 408.22 124.09 407.93 123.56 407.79 C 125.18 404.64 127.24 401.72 128.62 398.45 Z"/>
</g>






</svg>