<?xml version="1.0" encoding="UTF-8" ?>
<!DOCTYPE svg PUBLIC "-//W3C//DTD SVG 1.1//EN" "http://www.w3.org/Graphics/SVG/1.1/DTD/svg11.dtd">
<svg width="709pt" height="945pt" viewBox="0 0 709 945" version="1.1" xmlns="http://www.w3.org/2000/svg">
<g id="#000000ff">
<path fill="#000000" opacity="1.00" d=" M 189.22 118.02 C 299.76 117.98 410.30 118.01 520.83 118.00 C 520.79 126.39 520.87 134.78 520.79 143.16 C 488.53 143.18 456.28 143.15 424.03 143.18 C 414.05 143.21 403.67 146.32 396.42 153.43 C 390.26 159.56 388.11 168.59 388.34 177.05 C 388.38 255.09 388.25 333.13 388.40 411.16 C 465.24 334.39 542.11 257.65 618.93 180.87 C 595.06 168.69 571.02 156.85 547.12 144.74 C 601.06 135.71 655.08 127.13 709.00 117.95 L 709.00 118.70 C 706.73 127.06 705.69 135.68 704.02 144.18 C 695.76 190.21 687.52 236.25 679.22 282.28 C 667.76 257.95 656.81 233.37 645.73 208.87 C 643.53 209.82 642.10 211.80 640.43 213.41 C 583.23 270.54 526.03 327.67 468.85 384.82 C 458.53 395.05 448.35 405.43 437.92 415.56 C 493.34 415.88 548.77 415.57 604.20 415.71 C 604.13 424.00 604.36 432.30 604.07 440.59 C 540.36 440.54 476.65 440.55 412.93 440.59 C 404.87 448.94 396.28 456.83 388.45 465.38 C 388.12 477.93 388.52 490.52 388.26 503.08 C 460.23 503.49 532.22 503.11 604.20 503.28 C 604.20 511.57 604.22 519.87 604.19 528.16 C 532.23 528.21 460.27 528.16 388.31 528.19 C 388.38 608.44 388.31 688.69 388.35 768.93 C 388.25 777.30 390.77 786.12 396.99 791.99 C 404.50 798.90 414.94 801.79 424.97 801.73 C 456.93 801.80 488.90 801.72 520.86 801.77 C 520.20 809.85 520.65 817.96 520.49 826.06 C 521.12 817.94 520.11 809.77 521.17 801.68 C 521.37 809.92 521.19 818.17 521.27 826.41 C 410.59 826.62 299.92 826.45 189.24 826.50 C 189.22 818.25 189.24 810.01 189.24 801.77 C 218.17 801.74 247.11 801.76 276.04 801.76 C 287.12 801.72 298.94 802.38 309.01 796.95 C 318.06 791.89 321.89 780.91 321.72 771.03 C 321.80 715.35 321.74 659.67 321.76 604.00 C 321.65 579.91 321.98 555.81 321.59 531.73 C 268.92 584.69 215.89 637.30 163.12 690.16 C 120.25 732.96 77.46 775.84 34.58 818.62 C 31.73 821.10 29.59 824.49 26.16 826.24 C 17.36 817.27 9.01 807.86 0.00 799.10 L 0.00 799.08 C 36.72 762.77 73.09 726.11 109.65 689.64 C 163.55 635.85 217.34 581.96 271.32 528.25 C 216.43 528.08 161.54 528.24 106.65 528.17 C 106.67 520.01 106.57 511.84 106.68 503.69 C 107.26 503.57 108.41 503.34 108.99 503.23 C 171.38 503.29 233.77 503.22 296.15 503.27 C 304.73 494.82 313.21 486.28 321.72 477.77 C 321.82 465.38 321.69 452.98 321.79 440.59 C 250.07 440.51 178.35 440.62 106.62 440.53 C 106.66 432.26 106.64 423.98 106.64 415.71 C 178.35 415.66 250.06 415.72 321.77 415.67 C 321.74 337.12 321.76 258.56 321.76 180.00 C 321.71 174.16 322.05 168.18 320.15 162.57 C 318.28 156.09 313.94 150.16 307.75 147.25 C 299.77 143.41 290.68 143.05 281.97 143.16 C 251.07 143.17 220.17 143.16 189.28 143.17 C 189.18 134.78 189.27 126.40 189.22 118.02 Z" />
</g>
</svg>
